<?xml version="1.0" encoding="UTF-8"?>
<!DOCTYPE svg PUBLIC "-//W3C//DTD SVG 1.1//EN" "http://www.w3.org/Graphics/SVG/1.1/DTD/svg11.dtd">
<!-- Creator: CorelDRAW SE -->
<svg xmlns="http://www.w3.org/2000/svg" xml:space="preserve" width="46.1374mm" height="50.8mm" version="1.1" style="shape-rendering:geometricPrecision; text-rendering:geometricPrecision; image-rendering:optimizeQuality; fill-rule:evenodd; clip-rule:evenodd"
viewBox="0 0 282 311"
 xmlns:xlink="http://www.w3.org/1999/xlink">
 <defs>
  <style type="text/css">
   <![CDATA[
    .fil0 {fill:#757575}
    .fil1 {fill:white}
   ]]>
  </style>
 </defs>
 <g id="Ebene_x0020_1">
  <metadata id="CorelCorpID_0Corel-Layer"/>
  <g id="_251518032">
   <path class="fil0" d="M225 48l-4 35c-1,2 0,1 -4,3l-34 15c-7,3 -34,14 -37,17 11,0 66,-1 72,1 0,2 -7,97 -9,106 -6,2 -68,19 -71,19 0,0 -62,-16 -69,-19 -2,-1 -2,-1 -3,-1l-4 -53c4,-1 29,-1 34,0 2,6 2,24 4,26 3,2 34,12 37,11l37 -11c1,-7 5,-38 4,-44l-117 0c-3,-5 -3,-11 -3,-17 0,-6 -1,-12 -2,-18 7,-4 45,-18 51,-21 4,-3 6,-3 10,-5 3,-1 18,-6 20,-9 -9,0 -81,2 -83,0l-1 -5c-1,-9 -4,-20 -3,-29l175 -1zm-200 233c7,1 23,5 30,7 9,3 19,5 29,8 6,2 56,15 59,15 10,-2 114,-33 115,-33l24 -277c-12,-2 -218,-1 -246,-1 -10,0 -28,-1 -36,1l25 280z"/>
   <path class="fil1" d="M50 49c-1,9 2,20 3,29l1 5c2,2 74,0 83,0 -2,3 -17,8 -20,9 -4,2 -6,2 -10,5 -6,3 -44,17 -51,21 1,6 2,12 2,18 0,6 0,12 3,17l117 0c1,6 -3,37 -4,44l-37 11c-3,1 -34,-9 -37,-11 -2,-2 -2,-20 -4,-26 -5,-1 -30,-1 -34,0l4 53c1,0 1,0 3,1 7,3 69,19 69,19 3,0 65,-17 71,-19 2,-9 9,-104 9,-106 -6,-2 -61,-1 -72,-1 3,-3 30,-14 37,-17l34 -15c4,-2 3,-1 4,-3l4 -35 -175 1z"/>
  </g>
 </g>
</svg>
