<?xml version="1.0" encoding="UTF-8"?>
<!DOCTYPE svg PUBLIC "-//W3C//DTD SVG 1.1//EN" "http://www.w3.org/Graphics/SVG/1.1/DTD/svg11.dtd">
<!-- Creator: CorelDRAW SE -->
<svg xmlns="http://www.w3.org/2000/svg" xml:space="preserve" width="83.6514mm" height="52.0932mm" version="1.1" style="shape-rendering:geometricPrecision; text-rendering:geometricPrecision; image-rendering:optimizeQuality; fill-rule:evenodd; clip-rule:evenodd"
viewBox="0 0 654 407"
 xmlns:xlink="http://www.w3.org/1999/xlink">
 <defs>
  <style type="text/css">
   <![CDATA[
    .str0 {stroke:#FEFEFE;stroke-width:1.56329}
    .fil0 {fill:none}
    .fil2 {fill:#FEFEFE}
    .fil1 {fill:#757575}
   ]]>
  </style>
 </defs>
 <g id="Ebene_x0020_1">
  <metadata id="CorelCorpID_0Corel-Layer"/>
  <rect class="fil0 str0" x="1" y="1" width="652" height="406"/>
  <path class="fil1" d="M375 166c-13,0 -22,6 -22,21 0,12 6,20 21,20 14,0 23,-8 23,-20 0,-14 -9,-21 -22,-21l0 0zm-26 108c-3,3 -6,7 -6,12 0,10 12,13 29,13 13,0 32,-1 32,-14 0,-8 -9,-8 -20,-9l-35 -2 0 0 0 0zm70 -108c4,6 9,13 9,24 0,26 -21,42 -50,42 -8,0 -15,-1 -19,-3l-8 13 23 1c41,3 65,4 65,36 0,26 -24,42 -65,42 -43,0 -59,-11 -59,-30 0,-10 5,-16 13,-24 -8,-3 -10,-9 -10,-15 0,-5 2,-10 7,-15 4,-4 9,-9 14,-14 -11,-5 -20,-18 -20,-35 0,-27 18,-46 54,-46 10,0 17,1 22,3l46 0 0 20 -22 1 0 0 0 0zm0 0l0 0 0 0zm193 90c-10,5 -25,9 -38,9 -28,0 -39,-11 -39,-38l0 -61c0,-2 0,-2 -1,-2l-17 0 0 -22c21,-2 29,-12 32,-38l22 0 0 33c0,2 0,3 2,3l33 0 0 24 -35 0 0 55c0,14 3,20 16,20 6,0 13,-2 19,-4l6 21 0 0 0 0zm0 0l0 0 0 0zm-130 -133c-13,0 -21,-7 -21,-21 0,-13 8,-20 21,-20 14,0 22,7 22,20 0,14 -8,21 -22,21zm-30 142l0 -18 12 -2c3,0 4,-2 4,-5l0 -69c0,-3 -1,-5 -4,-5l-12 -5 2 -19 49 0 0 98c0,4 0,5 4,5l12 2 0 18 -67 0 0 0zm0 0l0 0 0 0z"/>
  <path class="fil2" d="M284 190l-108 -108c-6,-6 -16,-6 -22,0l-23 23 0 0 -51 51 -34 34c-6,6 -6,16 0,22l108 108c7,6 17,6 23,0l107 -107c6,-6 6,-16 0,-23l0 0 0 0zm0 0l0 0 0 0z"/>
  <g id="_669094280">
   <path class="fil1" d="M284 190l-108 -108c-6,-6 -16,-6 -22,0l-23 23 28 28c7,-2 15,0 20,5 6,5 7,13 4,19l28 28c7,-3 14,-1 19,5 8,7 8,19 0,26 -7,8 -19,8 -26,0 -6,-6 -7,-14 -4,-20l-26 -26 0 67c2,1 3,2 5,4 7,7 7,19 0,27 -7,7 -20,7 -27,0 -7,-8 -7,-20 0,-27 2,-2 4,-3 6,-5l0 -67c-2,-1 -4,-2 -6,-5 -5,-5 -6,-13 -4,-20l-28 -28 -74 74c-6,6 -6,16 0,22l108 108c7,6 17,6 23,0l107 -107c6,-6 6,-16 0,-23l0 0 0 0zm0 0l0 0 0 0z"/>
  </g>
 </g>
</svg>
