<?xml version="1.0" encoding="UTF-8"?>
<!DOCTYPE svg PUBLIC "-//W3C//DTD SVG 1.1//EN" "http://www.w3.org/Graphics/SVG/1.1/DTD/svg11.dtd">
<!-- Creator: CorelDRAW SE -->
<svg xmlns="http://www.w3.org/2000/svg" xml:space="preserve" width="83.6514mm" height="52.0932mm" version="1.1" style="shape-rendering:geometricPrecision; text-rendering:geometricPrecision; image-rendering:optimizeQuality; fill-rule:evenodd; clip-rule:evenodd"
viewBox="0 0 560 349"
 xmlns:xlink="http://www.w3.org/1999/xlink">
 <defs>
  <style type="text/css">
   <![CDATA[
    .str0 {stroke:#FEFEFE;stroke-width:1.33821}
    .fil5 {fill:none}
    .fil3 {fill:#FEFEFE}
    .fil1 {fill:#B2B3B3}
    .fil0 {fill:#2B2A29}
    .fil2 {fill:#3F2C00}
    .fil4 {fill:#F05030}
   ]]>
  </style>
 </defs>
 <g id="Ebene_x0020_1">
  <metadata id="CorelCorpID_0Corel-Layer"/>
  <g id="_669121856">
   <g>
    <path class="fil0" d="M362 148c4,6 6,11 6,18 0,26 -21,38 -45,38 -5,0 -10,-1 -15,-2l-5 7 18 2c10,0 21,1 30,3 8,1 15,3 20,9 5,5 7,12 7,19 0,6 -2,12 -4,17 -10,18 -35,21 -53,21 -19,0 -53,-1 -53,-27 0,-9 4,-14 10,-20 -5,-3 -7,-7 -7,-13 0,-6 2,-10 6,-14 3,-4 7,-7 10,-10 -10,-7 -16,-18 -16,-31 0,-28 21,-41 48,-41 6,0 13,0 19,2l39 0c1,0 2,1 2,2l0 17c0,1 -1,2 -1,2l-16 1zm95 -2l-15 0c-1,0 -1,-1 -1,-2l0 -18c0,-1 0,-2 1,-2 6,0 12,-2 16,-6 7,-6 9,-17 10,-25 0,-1 1,-2 2,-2l19 0c1,0 2,1 2,2l0 29c0,0 0,0 0,0l28 0c1,0 2,1 2,1l0 21c0,1 -1,2 -2,2l-28 0 0 46c0,9 1,15 11,15 6,0 11,-2 16,-3 1,-1 1,-1 2,0 0,0 0,0 1,1l5 18c0,1 0,2 -1,2 -10,4 -23,8 -34,8 -24,0 -34,-10 -34,-34l0 -53c0,0 0,0 0,0zm-44 -35c-13,0 -20,-7 -20,-20 0,-12 7,-19 20,-19 12,0 20,7 20,19 0,13 -8,20 -20,20zm20 101c0,0 1,0 1,0l11 2c0,0 1,0 1,1l0 16c0,1 -1,2 -2,2l-57 0c-1,0 -2,-1 -2,-2l0 -16c0,-1 1,-1 2,-1l10 -2c2,0 2,-1 2,-3l0 -59c0,-1 0,-2 -2,-2 0,0 0,0 0,0l-11 -4c0,-1 -1,-1 -1,-2l2 -16c0,-1 1,-2 2,-2l42 0c1,0 2,1 2,2l0 83c0,1 0,2 0,3zm-133 28c-2,3 -5,6 -5,9 0,9 17,9 23,9 7,0 26,0 26,-10 0,-1 0,-2 0,-2 -3,-3 -12,-4 -15,-4l-29 -2zm21 -92c-11,0 -17,5 -17,16 0,11 6,15 17,15 9,0 17,-5 17,-15 0,-11 -6,-16 -17,-16z"/>
    <path class="fil1" d="M362 144c4,6 6,11 6,18 0,26 -21,38 -45,38 -5,0 -10,-1 -15,-2l-5 7 18 2c10,0 21,1 30,3 8,1 15,3 20,9 5,5 7,12 7,19 0,6 -2,12 -4,17 -10,18 -35,21 -53,21 -19,0 -53,-1 -53,-27 0,-9 4,-14 10,-20 -5,-3 -7,-7 -7,-13 0,-6 2,-10 6,-14 3,-4 7,-7 10,-10 -10,-7 -16,-19 -16,-31 0,-28 21,-41 48,-41 6,0 13,0 19,2l39 0c1,0 2,1 2,2l0 17c0,1 -1,2 -1,2l-16 1zm95 -2l-15 0c-1,0 -1,-1 -1,-2l0 -18c0,-1 0,-2 1,-2 6,0 12,-2 16,-6 7,-6 9,-17 10,-25 0,-1 1,-2 2,-2l19 0c1,0 2,1 2,2l0 29c0,0 0,0 0,0l28 0c1,0 2,1 2,1l0 21c0,1 -1,2 -2,2l-28 0 0 46c0,9 1,15 11,15 6,0 11,-2 16,-3 1,-1 1,-1 2,0 0,0 0,0 1,1l5 18c0,1 0,2 -1,2 -10,4 -23,8 -34,8 -24,0 -34,-10 -34,-35l0 -52c0,0 0,0 0,0zm-44 -35c-13,0 -20,-7 -20,-20 0,-12 7,-19 20,-19 12,0 20,7 20,19 0,13 -8,20 -20,20zm20 101c0,0 1,0 1,0l11 2c0,0 1,0 1,1l0 16c0,1 -1,2 -2,2l-57 0c-1,0 -2,-1 -2,-2l0 -16c0,-1 1,-1 2,-1l10 -2c2,0 2,-1 2,-3l0 -59c0,-1 0,-2 -2,-2 0,0 0,0 0,0l-11 -4c0,-1 -1,-1 -1,-2l2 -16c0,-1 1,-2 2,-2l42 0c1,0 2,1 2,2l0 83c0,1 0,2 0,3zm-133 28c-2,3 -5,6 -5,9 0,9 17,9 23,9 7,0 26,0 26,-10 0,-1 0,-2 0,-2 -3,-3 -12,-4 -15,-4l-29 -2zm21 -92c-11,0 -17,5 -17,16 0,11 6,15 17,15 9,0 17,-5 17,-15 0,-11 -6,-16 -17,-16z"/>
    <path class="fil2" d="M321 142c-11,0 -19,5 -19,18 0,10 5,17 19,17 11,0 19,-6 19,-17 0,-12 -8,-18 -19,-18l0 0zm-22 92c-3,3 -5,7 -5,11 0,8 10,11 24,11 12,0 28,-1 28,-12 0,-7 -8,-7 -17,-7l-30 -3 0 0 0 0zm60 -92c3,5 7,11 7,20 0,23 -17,36 -43,36 -6,0 -12,-1 -16,-2l-7 11 21 1c34,3 55,4 55,30 0,23 -21,37 -55,37 -37,0 -51,-10 -51,-26 0,-9 4,-13 11,-20 -7,-3 -9,-8 -9,-13 0,-5 2,-9 6,-13 4,-4 8,-8 12,-12 -10,-5 -17,-15 -17,-30 0,-23 15,-39 46,-39 9,0 14,0 19,2l39 0 0 17 -18 1 0 0 0 0zm0 0l0 0 0 0zm165 77c-8,4 -21,8 -33,8 -24,0 -33,-10 -33,-33l0 -52c0,-1 0,-2 -1,-2l-15 0 0 -18c18,-2 25,-11 28,-33l19 0 0 29c0,1 0,1 1,1l29 0 0 21 -30 0 0 48c0,12 3,17 13,17 6,0 12,-2 17,-4l5 18 0 0 0 0zm0 0l0 0 0 0zm-111 -113c-12,0 -18,-7 -18,-19 0,-11 6,-17 18,-17 12,0 18,6 18,17 0,12 -6,19 -18,19zm-26 121l0 -16 10 -1c3,-1 3,-2 3,-5l0 -59c0,-2 0,-4 -3,-4l-10 -4 2 -16 42 0 0 83c0,4 0,4 3,5l10 1 0 16 -57 0 0 0zm0 0l0 0 0 0z"/>
   </g>
   <g>
    <path class="fil0" d="M110 93c1,0 1,0 1,-1l20 -19c5,-6 15,-6 21,0l92 93c0,0 0,0 0,0 6,6 6,15 0,22l-91 91c-7,6 -16,6 -22,0 0,0 0,0 0,0l-93 -92c-6,-6 -6,-16 0,-21l29 -30 43 -43z"/>
    <path class="fil1" d="M110 89c1,0 1,0 1,-1l20 -19c5,-6 15,-6 21,0l92 93c0,0 0,0 0,0 6,6 6,15 0,22l-91 91c-7,6 -16,6 -22,0 0,0 0,0 0,0l-93 -92c-6,-6 -6,-16 0,-21l29 -30 43 -43z"/>
    <path class="fil3" d="M243 163l-92 -92c-5,-6 -14,-6 -19,0l-20 19 0 0 -43 44 -30 29c-5,5 -5,14 0,19l93 92c5,5 14,5 19,0l92 -92c5,-5 5,-14 0,-19l0 0 0 0zm0 0l0 0 0 0z"/>
    <g>
     <path class="fil4" d="M243 163l-92 -92c-5,-6 -14,-6 -19,0l-20 19 25 24c5,-2 12,0 16,4 5,5 6,11 4,17l24 23c5,-2 12,-1 16,4 6,6 6,16 0,23 -6,6 -16,6 -23,0 -4,-5 -5,-12 -3,-18l-22 -21 0 57c1,1 3,2 4,3 6,6 6,16 0,23 -6,6 -16,6 -23,0 -6,-7 -6,-17 0,-23 2,-2 4,-3 6,-4l0 -57c-2,-1 -4,-2 -6,-4 -4,-5 -5,-12 -3,-18l-24 -24 -64 64c-5,5 -5,14 0,19l93 92c5,5 14,5 19,0l92 -92c5,-5 5,-14 0,-19l0 0 0 0zm0 0l0 0 0 0z"/>
    </g>
   </g>
  </g>
  <rect class="fil5 str0" x="1" y="1" width="558" height="347"/>
 </g>
</svg>
