<?xml version="1.0" encoding="UTF-8"?>
<!DOCTYPE svg PUBLIC "-//W3C//DTD SVG 1.1//EN" "http://www.w3.org/Graphics/SVG/1.1/DTD/svg11.dtd">
<!-- Creator: CorelDRAW SE -->
<svg xmlns="http://www.w3.org/2000/svg" xml:space="preserve" width="90.5818mm" height="60.7367mm" version="1.1" style="shape-rendering:geometricPrecision; text-rendering:geometricPrecision; image-rendering:optimizeQuality; fill-rule:evenodd; clip-rule:evenodd"
viewBox="0 0 4838 3244"
 xmlns:xlink="http://www.w3.org/1999/xlink">
 <defs>
  <style type="text/css">
   <![CDATA[
    .str0 {stroke:#FEFEFE;stroke-width:10.6824}
    .fil1 {fill:none}
    .fil2 {fill:#FEFEFE}
    .fil0 {fill:#757575}
   ]]>
  </style>
 </defs>
 <g id="Ebene_x0020_1">
  <metadata id="CorelCorpID_0Corel-Layer"/>
  <polygon class="fil0" points="1410,2708 1186,266 3652,266 3428,2706 2417,2978 "/>
  <rect class="fil1 str0" x="5" y="5" width="4827" height="3233"/>
  <g id="_684177016">
   <g>
    <path class="fil2" d="M1644 765l775 0 0 299 -436 0 28 307 408 0 0 299 -691 0 -84 -905zm98 1055l310 0 22 239 345 90 0 312 -634 -171 -43 -470zm0 0l0 0 0 0z"/>
   </g>
   <g>
    <path class="fil2" d="M3191 765l-773 0 0 299 745 0 28 -299zm-56 606l-717 0 0 299 380 0 -36 389 -344 90 0 311 632 -170 85 -919zm0 0l0 0 0 0z"/>
   </g>
  </g>
 </g>
</svg>
