<?xml version="1.0" encoding="UTF-8"?>
<!DOCTYPE svg PUBLIC "-//W3C//DTD SVG 1.1//EN" "http://www.w3.org/Graphics/SVG/1.1/DTD/svg11.dtd">
<!-- Creator: CorelDRAW SE -->
<svg xmlns="http://www.w3.org/2000/svg" xml:space="preserve" width="90.6318mm" height="60.7867mm" version="1.1" style="shape-rendering:geometricPrecision; text-rendering:geometricPrecision; image-rendering:optimizeQuality; fill-rule:evenodd; clip-rule:evenodd"
viewBox="0 0 2178 1461"
 xmlns:xlink="http://www.w3.org/1999/xlink">
 <defs>
  <style type="text/css">
   <![CDATA[
    .str0 {stroke:#FEFEFE;stroke-width:6.00909}
    .fil0 {fill:none}
    .fil2 {fill:#B2B3B3}
    .fil1 {fill:#2B2A29}
    .fil3 {fill:#E44D26}
    .fil5 {fill:#EBEBEB}
    .fil4 {fill:#F16529}
    .fil6 {fill:white}
   ]]>
  </style>
 </defs>
 <g id="Ebene_x0020_1">
  <metadata id="CorelCorpID_0Corel-Layer"/>
  <rect class="fil0 str0" x="3" y="3" width="2172" height="1455"/>
  <g id="_668608728">
   <g>
    <path class="fil1" d="M635 1238l-101 -1098 1110 0 -101 1098 -455 122 -453 -122zm0 0l0 0 0 0z"/>
   </g>
   <g>
    <path class="fil1" d="M1089 1267l0 -1037 454 0 -87 937 -367 100zm0 0l0 0 0 0z"/>
   </g>
   <g>
    <path class="fil1" d="M740 364l349 0 0 135 -196 0 12 138 184 0 0 134 -311 0 -38 -407zm44 475l140 0 10 107 155 41 0 140 -285 -77 -20 -211zm0 0l0 0 0 0z"/>
   </g>
   <g>
    <path class="fil1" d="M1437 364l-349 0 0 135 336 0 13 -135zm-26 273l-323 0 0 134 172 0 -16 175 -156 41 0 140 285 -77 38 -413zm0 0l0 0 0 0z"/>
   </g>
  </g>
  <path class="fil2" d="M629 1219l-101 -1099c0,-2 0,-4 2,-5 1,-1 2,-2 4,-2l1110 0c2,0 3,1 5,2 1,1 1,3 1,5l-101 1098c0,3 -2,5 -4,5l-455 123c-1,0 -2,0 -3,0l-454 -122c-2,-1 -4,-3 -4,-5z"/>
  <g>
   <g>
    <path class="fil3" d="M635 1218l-101 -1099 1110 0 -101 1098 -455 123 -453 -122zm0 0l0 0 0 0z"/>
   </g>
   <g>
    <path class="fil4" d="M1089 1246l0 -1037 454 0 -87 938 -367 99zm0 0l0 0 0 0z"/>
   </g>
   <g>
    <path class="fil5" d="M740 344l349 0 0 134 -196 0 12 138 184 0 0 135 -311 0 -38 -407zm44 474l140 0 10 108 155 40 0 141 -285 -77 -20 -212zm0 0l0 0 0 0z"/>
   </g>
   <g>
    <path class="fil6" d="M1437 344l-349 0 0 134 336 0 13 -134zm-26 272l-323 0 0 135 172 0 -16 175 -156 40 0 140 285 -76 38 -414zm0 0l0 0 0 0z"/>
   </g>
  </g>
 </g>
</svg>
