<?xml version="1.0" encoding="UTF-8"?>
<!DOCTYPE svg PUBLIC "-//W3C//DTD SVG 1.1//EN" "http://www.w3.org/Graphics/SVG/1.1/DTD/svg11.dtd">
<!-- Creator: CorelDRAW SE -->
<svg xmlns="http://www.w3.org/2000/svg" xml:space="preserve" width="90.6318mm" height="60.7867mm" version="1.1" style="shape-rendering:geometricPrecision; text-rendering:geometricPrecision; image-rendering:optimizeQuality; fill-rule:evenodd; clip-rule:evenodd"
viewBox="0 0 1059 710"
 xmlns:xlink="http://www.w3.org/1999/xlink">
 <defs>
  <style type="text/css">
   <![CDATA[
    .str0 {stroke:#FEFEFE;stroke-width:2.92049}
    .fil0 {fill:none}
    .fil2 {fill:#B2B3B3}
    .fil1 {fill:#2B2A29}
    .fil3 {fill:#432D22}
    .fil4 {fill:#52B25A}
    .fil7 {fill:#8D704E}
    .fil6 {fill:#432D22;fill-rule:nonzero}
    .fil5 {fill:#8D704E;fill-rule:nonzero}
    .fil8 {fill:url(#id0)}
    .fil9 {fill:url(#id1)}
    .fil10 {fill:url(#id2)}
   ]]>
  </style>
  <linearGradient id="id0" gradientUnits="userSpaceOnUse" x1="545.747" y1="453.744" x2="516.269" y2="381.725">
   <stop offset="0" style="stop-opacity:1; stop-color:#E1E0CE"/>
   <stop offset="1" style="stop-opacity:1; stop-color:#939A6E"/>
  </linearGradient>
  <linearGradient id="id1" gradientUnits="userSpaceOnUse" x1="446.641" y1="277.405" x2="562.362" y2="257.298">
   <stop offset="0" style="stop-opacity:1; stop-color:#0C9A34"/>
   <stop offset="1" style="stop-opacity:1; stop-color:#5FB761"/>
  </linearGradient>
  <linearGradient id="id2" gradientUnits="userSpaceOnUse" x1="527.58" y1="264.788" x2="605.848" y2="264.788">
   <stop offset="0" style="stop-opacity:1; stop-color:#178232"/>
   <stop offset="1" style="stop-opacity:1; stop-color:#208E38"/>
  </linearGradient>
 </defs>
 <g id="Ebene_x0020_1">
  <metadata id="CorelCorpID_0Corel-Layer"/>
  <rect class="fil0 str0" x="1" y="1" width="1056" height="707"/>
  <path class="fil1" d="M314 217c0,-13 1,-26 3,-39 1,-14 4,-29 8,-42 4,-12 7,-22 17,-30 71,-55 266,-55 345,-16 28,14 36,17 46,49 11,37 9,74 8,112 0,13 -3,29 -6,41 -2,14 -6,29 -10,42 -20,58 -65,114 -114,151 -14,10 -69,48 -84,47 -7,-1 -37,-18 -45,-22 -47,-29 -87,-67 -118,-113 -36,-54 -50,-115 -50,-180zm322 403c1,-1 1,-2 1,-4 1,-8 0,-17 0,-26 0,-8 1,-17 0,-25 0,-3 -1,-3 -3,-3 -2,-1 -4,-1 -6,-1 -1,0 -2,-1 -2,-2 -1,-2 1,-6 2,-8 1,-1 2,-1 3,-1 4,0 9,0 13,0 8,0 17,0 25,0 10,0 20,3 28,9 9,8 13,19 13,30 0,14 -5,26 -16,34 -10,7 -21,9 -33,9 -10,0 -20,0 -30,-1l-1 0c-1,0 -2,0 -2,-1 -1,-3 1,-9 4,-9 1,0 3,-1 4,-1zm-335 -40c0,1 0,1 0,1 4,-3 10,-5 15,-5 5,0 10,2 13,7 5,-4 12,-7 17,-7 14,0 19,10 19,23 0,4 0,8 0,12 0,3 0,6 0,9 0,0 0,0 0,0 0,0 0,0 0,0 2,1 4,1 6,2 1,0 2,1 3,2 0,2 -1,5 -2,7 0,0 -1,1 -2,1 -1,0 -2,0 -3,0 0,0 0,0 0,0 -3,-1 -5,-1 -8,-1 -4,0 -9,0 -13,1 -2,0 -3,-1 -3,-2 -1,-1 -1,-5 0,-6 0,-1 1,-2 2,-2 1,0 2,-1 4,-1 0,0 0,0 0,0 0,-1 0,-2 0,-2 1,-4 1,-8 1,-12 0,-3 0,-8 -1,-11 0,-4 -4,-7 -8,-7 -3,0 -6,2 -8,3 0,3 0,6 0,8 0,3 0,5 0,7 0,5 0,9 0,13 0,0 0,0 0,1 0,0 1,0 1,0 0,0 1,0 1,0 1,0 2,1 3,1 2,0 2,1 3,2 0,1 0,3 0,4 0,1 -1,1 -1,2 0,0 0,1 -1,1 0,1 -1,1 -2,1 -4,0 -8,0 -13,0 -2,0 -4,0 -6,0 0,0 0,0 0,0 -2,0 -4,0 -5,0 -1,0 -2,-1 -2,-1 -1,-1 -1,-3 -1,-4 0,-2 0,-3 1,-4 0,-1 1,-1 1,-1 1,0 1,0 2,0 0,0 0,0 0,0 1,-1 2,-1 3,-1 0,0 0,0 0,0 0,0 0,-1 0,-1 1,-4 1,-8 1,-12 0,-3 0,-9 -1,-12 -1,-5 -3,-7 -7,-7 -3,0 -7,1 -9,3 0,0 0,0 0,0 0,3 0,5 0,7 0,7 -1,14 0,21 0,0 0,1 0,1 0,0 0,0 0,0 1,0 2,0 3,0 0,0 0,0 0,0 1,1 1,1 2,1 1,0 2,1 2,2 1,1 0,5 0,6 -1,1 -2,2 -3,2 -1,0 -3,0 -4,0 0,0 0,0 0,0 -3,0 -5,-1 -8,-1 -3,0 -6,0 -9,1 0,0 0,0 0,0 -1,0 -2,0 -4,0 -1,0 -2,-1 -2,-2 -1,-1 -1,-2 -1,-4 0,-1 0,-2 1,-3 1,-1 1,-1 2,-1 1,0 3,-1 4,-1 0,0 1,0 1,0 0,-1 0,-2 0,-2 0,-9 0,-18 0,-27l0 0c0,0 0,0 0,-1 0,0 0,0 0,0 -1,-1 -3,-2 -5,-2 -2,-1 -4,-2 -4,-5 0,-2 2,-4 5,-4 0,0 0,0 0,0 4,-1 12,-3 15,-4 1,-1 3,0 4,0 1,1 1,3 1,4zm102 53c-17,0 -27,-12 -27,-29 0,-10 3,-18 12,-23 5,-3 11,-5 18,-5 16,0 26,11 26,27 0,10 -4,19 -12,25 -5,3 -11,5 -17,5zm190 0c-17,0 -28,-12 -28,-29 0,-10 4,-18 13,-23 5,-3 11,-5 18,-5 16,0 26,11 26,27 0,10 -4,19 -12,25 -5,3 -11,5 -17,5zm-39 -41c0,0 0,1 0,2 0,8 -2,13 -8,18 -4,3 -9,5 -14,5 0,0 0,0 -1,0 0,0 0,0 -1,0 0,0 0,0 0,0 0,0 -1,0 -1,0 0,1 -1,1 -1,1 0,0 0,0 0,0 1,0 3,1 3,1 0,0 0,0 0,0 1,0 2,0 3,0 0,0 0,0 0,0 6,0 14,0 19,2 6,2 10,8 10,15 0,10 -8,18 -17,22 -5,3 -10,4 -16,4 -6,0 -12,-1 -17,-5 -4,-3 -7,-8 -7,-13 0,-3 1,-6 3,-8 2,-2 5,-4 7,-6 -2,-2 -4,-4 -5,-7 0,0 0,0 0,0 -1,-2 0,-4 2,-5 0,0 0,0 0,0 1,-1 2,-2 3,-2 0,-1 1,-1 1,-1 -6,-4 -9,-10 -9,-18 0,-6 3,-12 8,-16 4,-3 12,-5 17,-5l1 0c5,0 8,1 12,2 3,1 4,1 6,1 3,0 4,0 6,-2 1,-1 3,-1 4,0 1,1 1,3 1,4 1,3 0,5 -1,7 -2,2 -5,4 -8,4 0,0 0,0 0,0zm-92 -12c5,-3 10,-5 14,-5 6,0 12,3 15,8 3,5 4,11 4,16 0,7 0,14 0,21 2,1 4,1 6,1 1,1 1,1 2,2 1,2 1,6 -1,8 -1,1 -1,1 -2,1 -4,0 -9,0 -13,0 -4,0 -8,0 -12,0 -1,0 -2,0 -3,-1 -1,-2 -1,-7 1,-9 0,0 1,-1 1,-1 1,0 4,0 4,0 1,0 1,0 1,0 0,-1 0,-3 0,-4 0,-6 0,-14 -1,-21 0,-2 -1,-4 -2,-5 -2,-1 -3,-2 -5,-2 -3,0 -6,2 -8,3 -1,0 -1,0 -1,0 0,1 0,2 0,2 0,9 0,17 0,26 0,0 0,0 0,1 1,0 1,0 1,0 1,0 3,0 4,0 1,0 2,1 2,2 2,2 1,6 0,8 -1,1 -2,1 -3,1 -4,0 -8,0 -12,0 -4,0 -9,0 -13,0 -1,0 -1,0 -2,-1 -1,-2 -1,-7 0,-9 1,0 1,-1 2,-1 1,0 2,0 4,0 0,0 0,0 0,0 0,0 0,0 0,0 0,-1 0,-1 1,-2 0,-9 0,-18 0,-27 0,0 0,0 0,-1 -2,0 -3,-1 -5,-2 0,0 0,0 0,0 -6,-1 -5,-8 0,-9 1,0 1,0 1,0 3,-1 12,-3 15,-4 1,-1 3,-1 3,0 2,1 2,3 2,4zm307 5l1 0c0,0 0,0 0,0 7,4 12,10 13,18 0,0 0,0 0,0l0 4c0,0 0,0 0,0 -1,4 -2,8 -5,11 -1,2 -2,3 -3,4 -9,7 -17,10 -28,10l-13 0c-1,0 -2,0 -3,0l-13 0c-2,0 -4,0 -6,-3 0,0 0,-1 0,-1l0 -1c0,0 0,-1 0,-1 1,-1 2,-3 2,-4 1,-1 2,-2 3,-2 1,0 5,0 5,-1 1,-1 1,-6 1,-7l0 -48c0,-2 0,-2 -1,-2 -3,-1 -10,0 -10,-5 0,-2 1,-3 2,-5 0,-1 1,-2 3,-2l2 0 8 0c6,1 12,0 18,0l6 0c7,0 13,1 19,5 6,5 8,13 6,20 0,3 -3,7 -7,10zm-114 -23c0,2 0,4 0,5 0,4 0,8 0,12 0,3 0,7 0,10 0,3 0,6 0,8 0,4 0,8 0,12 0,2 0,4 1,6 0,0 0,0 0,0 0,1 0,2 1,3 0,0 0,0 0,0 2,2 7,2 10,2 6,0 11,-1 15,-5 7,-6 9,-15 9,-24 0,-10 -4,-20 -13,-25 -5,-4 -12,-5 -18,-5 -1,0 -3,0 -5,1zm-254 25c-1,0 -3,0 -4,1 0,0 0,0 0,0 -4,2 -5,8 -5,13 0,8 4,21 14,21 3,0 4,-1 6,-2 3,-3 4,-9 4,-13 0,-9 -4,-20 -15,-20zm190 0c-1,0 -3,0 -4,1 0,0 0,0 0,0 -4,2 -5,8 -5,13 0,8 4,21 14,21 2,0 4,-1 6,-2 0,0 0,0 0,0 3,-3 4,-9 4,-13 0,-9 -4,-20 -15,-20zm-65 48c-2,1 -5,3 -5,6 0,2 1,4 3,6 3,2 7,3 11,3 5,0 13,-2 13,-9 0,-3 -2,-5 -5,-6 -3,-1 -10,-1 -14,-1 -1,0 -2,0 -3,1zm4 -49c-5,0 -6,4 -6,9 0,5 2,12 9,12 1,0 3,-1 3,-1 0,-1 0,-1 0,-1 2,-1 3,-5 3,-7 0,-6 -2,-12 -9,-12zm211 34c0,0 1,0 1,0l8 0c2,0 5,0 7,-1 2,0 3,-1 4,-2 3,-3 3,-8 3,-11 -1,-3 -2,-6 -4,-8 -2,-1 -3,-1 -5,-2 -3,-1 -10,-2 -14,-1 0,1 0,6 0,8 0,2 0,5 0,8 0,1 -1,6 0,9zm0 -58c0,0 0,1 0,1l0 16c0,1 0,2 0,3 2,0 5,0 7,0 7,0 11,-2 11,-9 0,-9 -8,-11 -16,-11 0,0 -1,0 -2,0z"/>
  <path class="fil2" d="M314 210c0,-13 1,-26 3,-39 1,-14 4,-29 8,-42 4,-12 7,-22 17,-30 71,-55 266,-55 345,-16 28,14 36,17 46,49 11,37 9,74 8,112 0,13 -3,29 -6,41 -2,14 -6,29 -10,42 -20,58 -65,114 -114,151 -14,10 -69,48 -84,47 -7,-1 -37,-18 -45,-22 -47,-29 -87,-67 -118,-113 -36,-54 -50,-115 -50,-180zm322 403c1,-1 1,-2 1,-4 1,-8 0,-17 0,-26 0,-8 1,-17 0,-25 0,-3 -1,-3 -3,-3 -2,-1 -4,-1 -6,-1 -1,0 -2,-1 -2,-2 -1,-2 1,-6 2,-8 1,-1 2,-1 3,-1 4,0 9,0 13,0 8,0 17,0 25,0 10,0 20,3 28,9 9,8 13,19 13,30 0,14 -5,26 -16,34 -10,7 -21,9 -33,9 -10,0 -20,0 -30,-1l-1 0c-1,0 -2,0 -2,-1 -1,-3 1,-9 4,-9 1,0 3,-1 4,-1zm-335 -40c0,1 0,1 0,1 4,-3 10,-5 15,-5 5,0 10,2 13,7 5,-4 12,-7 17,-7 14,0 19,10 19,23 0,4 0,8 0,12 0,3 0,6 0,9 0,0 0,0 0,0 0,0 0,0 0,0 2,1 4,1 6,2 1,0 2,1 3,2 0,2 -1,5 -2,7 0,0 -1,1 -2,1 -1,0 -2,0 -3,0 0,0 0,0 0,0 -3,-1 -5,-1 -8,-1 -4,0 -9,0 -13,1 -2,0 -3,-1 -3,-2 -1,-1 -1,-5 0,-6 0,-1 1,-2 2,-2 1,0 2,-1 4,-1 0,0 0,0 0,0 0,-1 0,-2 0,-2 1,-4 1,-8 1,-12 0,-3 0,-8 -1,-11 0,-4 -4,-7 -8,-7 -3,0 -6,2 -8,3 0,3 0,6 0,8 0,3 0,5 0,7 0,5 0,9 0,13 0,0 0,0 0,1 0,0 1,0 1,0 0,0 1,0 1,0 1,0 2,1 3,1 2,0 2,1 3,2 0,1 0,3 0,4 0,1 -1,1 -1,2 0,0 0,1 -1,1 0,1 -1,1 -2,1 -4,0 -8,0 -13,0 -2,0 -4,0 -6,0 0,0 0,0 0,0 -2,0 -4,0 -5,0 -1,0 -2,-1 -2,-1 -1,-1 -1,-3 -1,-4 0,-2 0,-3 1,-4 0,-1 1,-1 1,-1 1,0 1,0 2,0 0,0 0,0 0,0 1,-1 2,-1 3,-1 0,0 0,0 0,0 0,0 0,-1 0,-1 1,-4 1,-8 1,-12 0,-3 0,-9 -1,-12 -1,-5 -3,-7 -7,-7 -3,0 -7,1 -9,3 0,0 0,0 0,0 0,3 0,5 0,7 0,7 -1,14 0,21 0,0 0,1 0,1 0,0 0,0 0,0 1,0 2,0 3,0 0,0 0,0 0,0 1,1 1,1 2,1 1,0 2,1 2,2 1,1 0,5 0,6 -1,1 -2,2 -3,2 -1,0 -3,0 -4,0 0,0 0,0 0,0 -3,0 -5,-1 -8,-1 -3,0 -6,0 -9,1 0,0 0,0 0,0 -1,0 -2,0 -4,0 -1,0 -2,-1 -2,-2 -1,-1 -1,-2 -1,-4 0,-1 0,-2 1,-3 1,-1 1,-1 2,-1 1,0 3,-1 4,-1 0,0 1,0 1,0 0,-1 0,-2 0,-2 0,-9 0,-18 0,-27l0 0c0,0 0,0 0,-1 0,0 0,0 0,0 -1,-1 -3,-2 -5,-2 -2,-1 -4,-2 -4,-5 0,-2 2,-4 5,-4 0,0 0,0 0,0 4,-1 12,-3 15,-4 1,-1 3,0 4,0 1,1 1,3 1,4zm102 53c-17,0 -27,-12 -27,-29 0,-10 3,-18 12,-23 5,-3 11,-5 18,-5 16,0 26,11 26,27 0,10 -4,19 -12,25 -5,3 -11,5 -17,5zm190 0c-17,0 -28,-12 -28,-29 0,-10 4,-18 13,-23 5,-3 11,-5 18,-5 16,0 26,11 26,27 0,10 -4,19 -12,25 -5,3 -11,5 -17,5zm-39 -41c0,0 0,1 0,2 0,8 -2,13 -8,18 -4,3 -9,5 -14,5 0,0 0,0 -1,0 0,0 0,0 -1,0 0,0 0,0 0,0 0,0 -1,0 -1,0 0,1 -1,1 -1,1 0,0 0,0 0,0 1,0 3,1 3,1 0,0 0,0 0,0 1,0 2,0 3,0 0,0 0,0 0,0 6,0 14,0 19,2 6,2 10,8 10,15 0,10 -8,18 -17,22 -5,3 -10,4 -16,4 -6,0 -12,-1 -17,-5 -4,-3 -7,-8 -7,-13 0,-3 1,-6 3,-8 2,-2 5,-4 7,-6 -2,-2 -4,-4 -5,-7 0,0 0,0 0,0 -1,-2 0,-4 2,-5 0,0 0,0 0,0 1,-1 2,-2 3,-2 0,-1 1,-1 1,-1 -6,-4 -9,-10 -9,-18 0,-6 3,-12 8,-16 4,-3 12,-5 17,-5l1 0c5,0 8,1 12,2 3,1 4,1 6,1 3,0 4,0 6,-2 1,-1 3,-1 4,0 1,1 1,3 1,4 1,3 0,5 -1,7 -2,2 -5,4 -8,4 0,0 0,0 0,0zm-92 -12c5,-3 10,-5 14,-5 6,0 12,3 15,8 3,5 4,11 4,16 0,7 0,14 0,21 2,1 4,1 6,1 1,1 1,1 2,2 1,2 1,6 -1,8 -1,1 -1,1 -2,1 -4,0 -9,0 -13,0 -4,0 -8,0 -12,0 -1,0 -2,0 -3,-1 -1,-2 -1,-7 1,-9 0,0 1,-1 1,-1 1,0 4,0 4,0 1,0 1,0 1,0 0,-1 0,-3 0,-4 0,-6 0,-14 -1,-21 0,-2 -1,-4 -2,-5 -2,-1 -3,-2 -5,-2 -3,0 -6,2 -8,3 -1,0 -1,0 -1,0 0,1 0,2 0,2 0,9 0,17 0,26 0,0 0,0 0,1 1,0 1,0 1,0 1,0 3,0 4,0 1,0 2,1 2,2 2,2 1,6 0,8 -1,1 -2,1 -3,1 -4,0 -8,0 -12,0 -4,0 -9,0 -13,0 -1,0 -1,0 -2,-1 -1,-2 -1,-7 0,-9 1,0 1,-1 2,-1 1,0 2,0 4,0 0,0 0,0 0,0 0,0 0,0 0,0 0,-1 0,-1 1,-2 0,-9 0,-18 0,-27 0,0 0,0 0,-1 -2,0 -3,-1 -5,-2 0,0 0,0 0,0 -6,-1 -5,-8 0,-9 1,0 1,0 1,0 3,-1 12,-3 15,-5 1,0 3,0 3,1 2,1 2,3 2,4zm307 5l1 0c0,0 0,0 0,0 7,4 12,10 13,18 0,0 0,0 0,0l0 4c0,0 0,0 0,0 -1,4 -2,8 -5,11 -1,2 -2,3 -3,4 -9,7 -17,10 -28,10l-13 0c-1,0 -2,0 -3,0l-13 0c-2,0 -4,0 -6,-3 0,0 0,-1 0,-1l0 -1c0,0 0,-1 0,-1 1,-1 2,-3 2,-4 1,-1 2,-2 3,-2 1,0 5,0 5,-1 1,-1 1,-6 1,-7l0 -48c0,-2 0,-2 -1,-2 -3,-1 -10,0 -10,-5 0,-2 1,-3 2,-5 0,-1 1,-2 3,-2l2 0 8 0c6,1 12,0 18,0l6 0c7,0 13,1 19,5 6,5 8,13 6,20 0,3 -3,7 -7,10zm-114 -23c0,2 0,4 0,5 0,4 0,8 0,12 0,3 0,7 0,10 0,3 0,6 0,8 0,4 0,8 0,12 0,2 0,4 1,6 0,0 0,0 0,0 0,1 0,2 1,3 0,0 0,0 0,0 2,2 7,2 10,2 6,0 11,-1 15,-5 7,-6 9,-15 9,-24 0,-10 -4,-20 -13,-25 -5,-4 -12,-5 -18,-5 -1,0 -3,0 -5,1zm-254 25c-1,0 -3,0 -4,1 0,0 0,0 0,0 -4,2 -5,8 -5,13 0,8 4,21 14,21 3,0 4,-1 6,-2 3,-3 4,-9 4,-13 0,-9 -4,-20 -15,-20zm190 0c-1,0 -3,0 -4,1 0,0 0,0 0,0 -4,2 -5,8 -5,13 0,8 4,21 14,21 2,0 4,-1 6,-2 0,0 0,0 0,0 3,-3 4,-9 4,-13 0,-9 -4,-20 -15,-20zm-65 48c-2,1 -5,3 -5,6 0,2 1,4 3,5 3,3 7,4 11,4 5,0 13,-2 13,-9 0,-3 -2,-5 -5,-6 -3,-1 -10,-1 -14,-1 -1,0 -2,0 -3,1zm4 -49c-5,0 -6,4 -6,9 0,5 2,12 9,12 1,0 3,-1 3,-1 0,-1 0,-1 0,-1 2,-1 3,-5 3,-7 0,-6 -2,-12 -9,-12zm211 34c0,0 1,0 1,0l8 0c2,0 5,0 7,-1 2,0 3,-1 4,-2 3,-3 3,-8 3,-11 -1,-3 -2,-6 -4,-8 -2,-1 -3,-1 -5,-2 -3,-1 -10,-2 -14,-1 0,1 0,6 0,8 0,2 0,5 0,8 0,1 -1,6 0,9zm0 -58c0,0 0,1 0,1l0 16c0,1 0,2 0,3 2,0 5,0 7,0 7,0 11,-2 11,-9 0,-9 -8,-11 -16,-11 0,0 -1,0 -2,0z"/>
  <g id="_540668672">
   <path class="fil3" d="M502 90c56,-2 119,3 166,22 7,2 11,4 17,8 16,9 17,22 21,50 10,79 -9,165 -57,222 -30,35 -60,64 -102,87 -18,10 -15,12 -33,2 -10,-5 -19,-11 -29,-17 -40,-28 -68,-56 -94,-96 -41,-60 -53,-163 -33,-231 3,-10 3,-10 10,-15 15,-9 33,-16 51,-20 26,-7 54,-11 83,-12l0 0z"/>
   <path class="fil4" d="M502 93c55,-3 118,2 165,21 6,3 10,4 16,8 16,9 17,22 20,49 11,78 -9,164 -55,219 -30,35 -60,64 -102,87 -17,9 -14,12 -31,2 -11,-6 -20,-11 -29,-18 -40,-27 -67,-55 -94,-94 -40,-60 -52,-161 -32,-229 3,-9 3,-9 10,-14 15,-9 33,-15 50,-20 26,-7 54,-10 82,-11l0 0zm-185 117c0,65 14,126 49,178 31,46 71,83 118,112 6,4 37,21 43,22 14,1 67,-35 82,-47 48,-36 93,-91 113,-149 6,-17 16,-62 16,-82 1,-37 4,-74 -8,-112 -9,-30 -16,-32 -45,-46 -78,-39 -271,-39 -341,15 -9,8 -12,17 -16,29 -7,19 -11,59 -11,80l0 0z"/>
   <path class="fil5" d="M655 613c3,2 8,3 12,3 6,0 12,-1 17,-6 6,-5 10,-13 10,-26 0,-12 -5,-22 -14,-28 -5,-3 -12,-5 -20,-5 -3,0 -5,1 -6,1 -1,0 -1,1 -1,2 -1,2 -1,19 -1,28 0,10 0,24 1,26 0,1 0,4 2,5zm-24 -67c2,0 10,0 13,0 7,0 12,0 25,0 10,0 19,3 26,8 8,7 12,17 12,28 0,16 -8,26 -15,31 -7,6 -17,9 -31,9 -7,0 -20,0 -30,-1l-1 0c0,-1 1,-4 2,-4 3,-1 4,-1 5,-1 2,-1 3,-2 3,-6 1,-8 0,-17 0,-27 0,-7 1,-21 0,-26 0,-3 -2,-4 -5,-5 -1,-1 -4,-1 -7,-1 0,-1 2,-4 3,-5z"/>
   <path class="fil6" d="M280 622c0,-1 0,-2 0,-3 0,-1 0,-1 0,-1 2,-1 4,-1 5,-1 2,-1 3,-2 3,-5 0,-6 0,-18 0,-27l0 0c0,-1 0,-3 -1,-3 -2,-1 -4,-2 -6,-3 -1,0 -2,-1 -2,-2 0,0 1,-1 2,-1 4,-1 13,-3 17,-4 0,0 0,0 0,1 0,1 0,1 0,1 0,2 0,3 0,4 0,1 0,1 1,1 0,0 0,0 0,0 7,-6 13,-7 17,-7 5,0 9,2 12,7 0,0 1,1 1,1 0,0 0,-1 0,-1 7,-5 13,-7 17,-7 10,0 16,7 16,19 0,4 0,9 0,13 0,4 0,7 0,10 0,0 1,2 2,2 2,1 4,1 6,2l1 0c0,0 -1,3 -1,4 -1,0 -2,0 -3,0 -2,0 -5,-1 -8,-1 -7,0 -10,1 -13,1 -1,-1 -1,-4 -1,-4 2,-1 3,-1 5,-1 2,-1 2,-2 2,-5 0,-2 1,-19 0,-23 0,-5 -4,-10 -11,-10 -3,0 -7,1 -11,4 0,1 0,1 0,1l0 0c0,3 0,5 0,9 0,3 0,5 0,7 0,5 0,10 0,13 0,3 2,3 3,4 0,0 1,0 1,0 1,0 2,0 4,1 0,0 0,2 0,3 0,0 -1,1 -1,1 -3,0 -7,0 -13,0 -1,0 -4,0 -6,0 -2,0 -4,0 -5,0 0,0 0,-1 0,-2 0,-1 0,-2 0,-2 0,0 1,0 1,-1 2,0 3,0 4,0 2,-1 2,-2 2,-4 1,-6 1,-21 0,-25 -1,-6 -5,-9 -10,-9 -4,0 -8,1 -11,4 -1,0 -1,1 -1,2 0,2 0,5 0,7 0,8 0,17 0,21 0,2 0,3 3,4 0,0 1,0 2,0 1,0 2,1 2,1 1,0 0,3 0,4 -1,0 -2,0 -4,0 -2,0 -5,-1 -8,-1 -4,0 -7,1 -9,1 -1,0 -3,0 -4,0l0 0 0 0z"/>
   <path class="fil6" d="M401 577c-2,0 -4,0 -5,1 -5,3 -7,8 -7,16 0,14 7,24 17,24 3,0 6,-1 8,-3 3,-3 5,-8 5,-15 0,-14 -7,-23 -18,-23l0 0zm2 46c-18,0 -24,-14 -24,-26 0,-9 3,-16 10,-21 5,-3 11,-4 17,-4 14,0 23,10 23,24 0,10 -3,17 -11,22 -3,2 -10,5 -15,5l0 0 0 0z"/>
   <path class="fil6" d="M591 577c-2,0 -4,0 -5,1 -5,3 -7,8 -7,16 0,14 7,24 17,24 3,0 6,-1 8,-3 3,-3 5,-8 5,-15 0,-14 -7,-23 -18,-23l0 0zm2 46c-18,0 -25,-14 -25,-26 0,-9 4,-16 11,-21 5,-3 11,-4 17,-4 14,0 23,10 23,24 0,10 -3,17 -11,22 -3,2 -10,5 -15,5l0 0 0 0z"/>
   <path class="fil6" d="M530 576c-6,0 -9,5 -9,12 0,7 3,15 12,15 1,0 4,-1 5,-3 2,-1 4,-5 4,-9 0,-9 -5,-15 -12,-15l0 0zm-1 48c-2,0 -3,0 -4,1 -5,3 -7,6 -7,9 0,3 1,6 4,8 3,2 7,4 13,4 11,0 16,-6 16,-12 0,-4 -2,-7 -6,-8 -4,-2 -9,-2 -16,-2l0 0 0 0zm1 28c-7,0 -11,-2 -15,-5 -4,-3 -6,-7 -6,-10 0,-1 0,-4 2,-6 1,-1 4,-4 10,-8 0,0 0,0 0,0 0,-1 0,-1 0,-1 -5,-2 -7,-5 -7,-7 0,0 0,0 0,0 0,0 0,-1 0,-2 1,0 2,-1 4,-2 1,-1 3,-2 4,-3 1,0 1,0 1,-1 0,0 -1,0 -1,0 -7,-3 -11,-8 -11,-17 0,-5 3,-10 7,-13 3,-3 11,-5 15,-5l1 0c5,0 8,1 11,2 3,1 5,1 7,1 5,0 6,-1 8,-3 0,1 0,1 0,3 1,1 0,3 -1,4 -1,2 -3,3 -5,3 0,0 0,0 0,0 -2,-1 -3,-1 -3,-1l-1 0c0,0 0,1 1,1 0,0 0,0 0,0 0,1 0,4 0,5 0,9 -3,13 -7,15 -4,3 -8,5 -13,5l0 0c0,0 0,0 -1,0 -1,0 -1,0 -1,0l-1 0c0,1 -3,2 -3,4 0,1 1,3 6,4 1,0 2,0 3,0 6,0 14,1 18,2 4,2 8,6 8,12 0,7 -6,15 -16,20 -4,2 -9,3 -14,3l0 0 0 0z"/>
   <path class="fil6" d="M500 617c-2,0 -4,0 -7,-2 0,0 -1,-1 -1,-1 0,-4 0,-15 0,-22 0,-6 -1,-11 -3,-14 -3,-4 -7,-7 -13,-7 -5,0 -11,3 -16,8 0,0 -1,1 -1,0 0,-2 0,-4 0,-6 0,-1 0,-2 0,-2 -4,2 -14,4 -17,4 -3,1 -3,4 -1,4l0 0c0,0 0,0 0,0 3,1 5,2 7,3 1,1 1,2 1,3 0,8 0,21 -1,27 0,3 0,4 -2,4l0 0c-2,1 -3,1 -5,1 0,1 0,4 0,5 2,0 8,0 13,0 7,0 11,0 12,0 1,-1 1,-4 1,-5 -2,0 -4,0 -5,0 -2,-1 -2,-2 -3,-4 0,-6 0,-18 0,-26 0,-2 1,-3 2,-4 2,-2 6,-4 10,-4 3,0 5,2 7,3 2,2 3,5 3,7 1,4 1,13 1,21 0,5 -1,6 -2,6 -1,1 -3,1 -5,1 -1,1 -1,4 0,5 3,0 7,0 12,0 7,0 11,0 13,0 0,-1 1,-4 0,-5l0 0z"/>
   <path class="fil7" d="M750 616l-8 0c-5,-1 -4,2 -4,-12 0,-3 0,-5 0,-8 0,-3 -1,-10 1,-11 2,-1 25,-3 28,13 1,6 -1,11 -4,14 -1,1 -3,3 -5,3 -2,1 -5,1 -8,1l0 0zm-33 -70l2 0 8 0c6,1 12,0 18,0l6 0c7,0 13,1 17,5 4,3 7,9 6,16 -2,6 -8,11 -12,12 1,0 1,0 2,0l5 2c6,3 10,9 11,15l0 4c-1,3 -2,7 -4,9 -1,2 -2,3 -3,4 -9,7 -17,9 -26,9l-13 0c-1,0 -2,0 -3,0l-13 0c-1,0 -2,0 -3,-1l0 -1c0,-1 1,-2 2,-4 9,0 9,-2 9,-11l0 -48c0,-3 -1,-5 -4,-5 -1,0 -7,-1 -7,-2 0,-1 1,-3 2,-4l0 0zm31 32c-2,0 -6,0 -8,0 -3,0 -2,1 -2,-6l0 -16c0,-3 0,-2 1,-4 2,0 2,0 4,0 11,0 19,3 19,14 0,9 -5,12 -14,12l0 0z"/>
   <g>
    <path class="fil8" d="M527 456c0,-14 -1,-28 -5,-39l-4 -19 6 -22 11 0 9 35c-10,9 -10,28 -8,48l-9 -3z"/>
    <path class="fil9" d="M558 286l-30 -168c0,19 -52,33 -72,121 -8,38 -8,68 7,104 12,28 32,52 59,74l6 -36 30 -95z"/>
    <path class="fil10" d="M600 243c-22,-81 -58,-88 -72,-125 3,87 4,175 0,263 3,14 6,41 21,27 51,-49 66,-101 51,-165z"/>
   </g>
  </g>
 </g>
</svg>
