<?xml version="1.0" encoding="UTF-8"?>
<!DOCTYPE svg PUBLIC "-//W3C//DTD SVG 1.1//EN" "http://www.w3.org/Graphics/SVG/1.1/DTD/svg11.dtd">
<!-- Creator: CorelDRAW SE -->
<svg xmlns="http://www.w3.org/2000/svg" xml:space="preserve" width="90.6318mm" height="60.7867mm" version="1.1" style="shape-rendering:geometricPrecision; text-rendering:geometricPrecision; image-rendering:optimizeQuality; fill-rule:evenodd; clip-rule:evenodd"
viewBox="0 0 827 555"
 xmlns:xlink="http://www.w3.org/1999/xlink">
 <defs>
  <style type="text/css">
   <![CDATA[
    .str0 {stroke:#FEFEFE;stroke-width:2.28102}
    .fil0 {fill:none}
    .fil1 {fill:#757575}
   ]]>
  </style>
 </defs>
 <g id="Ebene_x0020_1">
  <metadata id="CorelCorpID_0Corel-Layer"/>
  <rect class="fil0 str0" x="1" y="1" width="825" height="552"/>
  <g>
   <path class="fil1" d="M392 72c43,-2 92,2 129,17 5,2 8,3 12,6 13,8 14,17 16,39 8,61 -7,128 -43,171 -23,27 -46,49 -79,67 -14,8 -11,10 -25,2 -8,-4 -15,-9 -23,-14 -31,-21 -52,-43 -73,-73 -31,-47 -41,-126 -25,-179 3,-7 3,-8 8,-11 11,-7 26,-12 39,-16 20,-5 42,-8 64,-9l0 0zm120 407c2,2 6,2 9,2 5,0 9,-1 14,-5 4,-4 7,-10 7,-20 0,-9 -4,-17 -11,-22 -4,-2 -10,-3 -16,-3 -2,0 -3,0 -5,0 0,1 0,1 0,2 -1,1 -1,14 -1,22 0,8 0,19 1,20 0,1 0,3 2,4zm-293 7c0,-1 0,-1 0,-2 0,-1 0,-1 0,-2 2,0 3,0 4,0 1,-1 2,-2 2,-4 0,-5 0,-14 0,-21l0 0c0,-1 0,-2 -1,-3 -1,-1 -3,-1 -5,-2 -1,0 -1,-1 -1,-1 0,-1 1,-1 2,-1 2,-1 10,-2 12,-4 1,1 1,1 1,2 0,0 0,0 0,1 0,1 0,2 0,3 0,0 0,0 0,0 0,0 1,0 1,0 5,-4 10,-6 12,-6 5,0 8,2 10,6 0,1 1,1 1,1 0,0 0,0 0,-1 5,-3 10,-6 14,-6 7,0 12,6 12,16 0,3 0,6 0,10 0,3 0,5 0,7 0,1 0,2 1,2 2,1 3,1 5,1l0 0c1,1 0,3 0,4 -1,0 -1,0 -2,0 -2,-1 -4,-1 -7,-1 -5,0 -8,0 -10,1 0,-1 0,-3 0,-4 1,0 2,0 3,0 2,-1 2,-2 2,-4 0,-1 1,-15 0,-18 0,-4 -3,-8 -9,-8 -2,0 -5,1 -8,4 0,0 -1,0 -1,0l1 1c0,1 0,3 0,6 0,2 0,4 0,6 0,4 0,7 0,10 0,2 1,2 2,3 0,0 1,0 1,0 1,0 2,0 3,0 0,1 0,2 0,3 0,0 0,1 0,1 -3,0 -6,-1 -11,-1 -1,0 -3,0 -5,1 -1,0 -3,0 -4,0 0,-1 0,-1 0,-2 0,-1 0,-1 0,-2 1,0 1,0 1,0 1,0 2,0 3,0 2,-1 2,-1 2,-3 0,-5 1,-17 0,-20 -1,-5 -4,-7 -8,-7 -3,0 -6,1 -9,3 0,1 0,2 0,2 0,2 -1,3 -1,5 0,6 0,14 1,17 0,1 0,2 2,3 0,0 1,0 2,0 0,0 1,0 2,0 0,1 0,3 -1,4 -1,0 -2,0 -3,0 -2,-1 -4,-1 -6,-1 -3,0 -5,0 -7,1 -1,0 -2,0 -3,0l0 0zm0 0l0 0zm95 -36c-2,0 -4,1 -5,2 -3,2 -5,6 -5,12 0,11 6,18 13,18 3,0 5,0 6,-2 3,-2 4,-6 4,-11 0,-11 -5,-19 -13,-19l0 0zm148 0c-2,0 -3,1 -5,2 -3,2 -5,6 -5,12 0,11 6,18 14,18 2,0 4,0 6,-2 2,-2 3,-6 3,-11 0,-11 -5,-19 -13,-19l0 0zm-48 0c-4,0 -7,3 -7,9 0,5 2,12 9,12 1,0 3,-1 4,-2 2,-2 3,-5 3,-8 0,-7 -3,-11 -9,-11l0 0zm-23 32c-2,0 -4,0 -6,-1 0,0 0,-1 0,-2 -1,-3 -1,-11 -1,-17 0,-4 0,-8 -2,-11 -3,-3 -6,-5 -10,-5 -4,0 -9,3 -13,6 0,0 -1,1 -1,0 0,-1 1,-3 1,-4 0,-1 -1,-2 -1,-2 -3,1 -10,3 -13,3 -2,1 -2,3 0,3 0,0 0,0 0,0 2,1 4,2 5,3 1,0 0,1 0,2 1,6 1,16 0,21 0,2 0,3 -2,4l0 0c-1,0 -2,0 -3,0 -1,1 -1,3 0,4 1,0 6,0 9,0 6,0 9,0 10,0 1,-1 1,-3 1,-4 -2,0 -3,0 -4,0 -2,-1 -2,-2 -2,-3 0,-5 0,-14 0,-20 0,-2 0,-3 1,-4 2,-1 5,-2 8,-2 2,0 4,0 5,1 2,2 3,4 3,6 0,3 0,11 0,17 0,3 0,4 -1,4 -1,1 -2,1 -4,1 -1,1 -1,3 0,4 2,0 5,0 9,0 6,0 9,0 10,0 1,-1 1,-3 1,-4l0 0zm-46 -30l0 0zm241 29l0 0 0 0zm0 0l-7 0c-3,0 -3,2 -3,-10 0,-2 0,-3 0,-6 0,-2 0,-7 1,-8 2,-1 20,-3 22,10 0,5 0,9 -3,11 -1,1 -2,2 -4,3 -2,0 -4,0 -6,0l0 0zm-174 -125c0,-11 -1,-21 -4,-30 -21,-17 -37,-37 -46,-58 -12,-28 -12,-52 -6,-81 16,-69 57,-80 56,-95 11,29 39,35 57,98 12,50 -1,91 -41,129 -1,1 -2,1 -3,2l0 0c-8,7 -8,22 -6,38l-7 -3zm148 70l1 0 7 1c5,0 9,0 14,-1l5 0c5,1 9,1 13,4 3,3 6,7 4,13 -1,4 -6,9 -8,9 0,1 0,0 1,0l3 2c6,2 8,7 9,11l0 4c0,2 -1,5 -3,7 -1,1 -2,2 -3,3 -6,5 -13,7 -20,7l-10 0c-1,0 -1,0 -2,0l-10 0c-1,0 -2,0 -3,-1l0 -1c1,-1 1,-1 2,-3 7,0 7,-2 7,-9l0 -37c0,-3 -1,-4 -3,-4 -1,0 -6,0 -6,-1 0,-2 2,-2 2,-4l0 0zm24 26l0 0 0 0zm0 0c-2,0 -4,0 -6,0 -2,-1 -2,0 -2,-6l0 -12c0,-2 0,-2 1,-3 2,0 2,0 4,0 8,0 14,3 14,11 0,7 -4,10 -11,10l0 0zm-171 35l0 0 0 0c-1,0 -3,1 -3,1 -4,2 -5,5 -5,7 0,3 1,4 3,6 2,2 5,3 10,3 8,0 12,-4 12,-9 0,-3 -1,-5 -5,-6 -2,-1 -6,-2 -12,-2l0 0 0 0zm0 0l0 0 0 0zm1 22l0 0 0 0c-5,0 -9,-1 -12,-3 -3,-3 -5,-6 -5,-9 0,-1 1,-2 2,-4 1,-1 3,-3 8,-6 0,0 0,0 0,-1 0,0 0,0 0,0 -4,-1 -5,-4 -6,-5 0,0 0,0 0,-1 0,0 0,-1 1,-1 0,-1 1,-1 2,-2 2,0 3,-1 4,-2 0,0 0,0 0,-1 0,0 0,0 0,0 -6,-2 -9,-6 -9,-13 0,-4 2,-8 5,-11 3,-1 9,-4 13,-4l0 0c4,0 6,1 9,2 2,1 3,1 5,1 4,0 5,-1 6,-2 1,0 1,1 1,2 0,1 0,2 -1,4 -1,1 -3,1 -4,1 0,0 0,0 0,0 -2,0 -3,0 -3,0l0 0c0,0 0,0 0,0 0,1 0,1 0,1 0,0 1,3 1,3 0,7 -3,10 -6,12 -3,3 -6,4 -10,4 0,0 0,0 -1,0 0,0 -1,0 -1,0l0 0c-1,1 -3,1 -3,3 0,1 1,3 5,3 1,0 1,0 2,0 5,1 11,1 14,2 4,1 6,5 6,9 0,6 -4,12 -12,16 -3,1 -7,2 -11,2l0 0 0 0zm1 -35l0 0zm-1 35l0 0 0 0zm49 -23l0 0 0 0c-14,0 -19,-10 -19,-20 0,-7 3,-12 8,-16 4,-2 9,-4 13,-4 11,0 19,8 19,19 0,8 -3,14 -9,18 -3,2 -8,3 -12,3l0 0 0 0zm0 0l0 0 0 0zm-148 0l0 0 0 0c-14,0 -19,-10 -19,-20 0,-7 2,-12 8,-16 4,-2 9,-4 13,-4 11,0 18,8 18,19 0,8 -3,14 -8,18 -3,2 -8,3 -12,3l0 0 0 0zm0 0l0 0 0 0zm178 -60c1,0 7,1 10,1 5,0 9,-1 19,-1 9,0 16,3 21,7 6,5 9,13 9,22 0,12 -6,20 -12,24 -5,4 -13,7 -24,7 -5,0 -15,-1 -23,-1l-1 0c0,0 1,-3 2,-3 2,-1 3,-1 4,-1 1,-1 2,-2 2,-5 0,-6 0,-13 0,-21 0,-5 0,-16 0,-20 0,-3 -1,-3 -4,-4 -1,0 -3,-1 -5,-1 0,0 1,-3 2,-4zm-245 -262c0,51 11,98 38,139 24,36 55,65 92,88 5,2 29,16 34,17 10,1 52,-28 64,-37 37,-28 73,-71 88,-117 4,-13 12,-48 13,-63 0,-29 2,-58 -7,-88 -7,-23 -12,-25 -35,-36 -61,-30 -212,-30 -266,12 -7,6 -9,13 -13,23 -5,15 -8,45 -8,62l0 0z"/>
  </g>
 </g>
</svg>
