<?xml version="1.0" encoding="UTF-8"?>
<!DOCTYPE svg PUBLIC "-//W3C//DTD SVG 1.1//EN" "http://www.w3.org/Graphics/SVG/1.1/DTD/svg11.dtd">
<!-- Creator: CorelDRAW SE -->
<svg xmlns="http://www.w3.org/2000/svg" xml:space="preserve" width="83.6514mm" height="52.0932mm" version="1.1" style="shape-rendering:geometricPrecision; text-rendering:geometricPrecision; image-rendering:optimizeQuality; fill-rule:evenodd; clip-rule:evenodd"
viewBox="0 0 887 552"
 xmlns:xlink="http://www.w3.org/1999/xlink">
 <defs>
  <style type="text/css">
   <![CDATA[
    .str0 {stroke:#FEFEFE;stroke-width:2.11992}
    .fil0 {fill:none}
    .fil1 {fill:#FEFEFE}
    .fil2 {fill:#757575}
    .fil3 {fill:#757575}
   ]]>
  </style>
 </defs>
 <g id="Ebene_x0020_1">
  <metadata id="CorelCorpID_0Corel-Layer"/>
  <rect class="fil0 str0" x="1" y="1" width="885" height="550"/>
  <circle class="fil1" cx="562" cy="383" r="15"/>
  <path class="fil2" d="M438 542c-3,0 -5,-1 -8,-2l-27 -16c-4,-2 -2,-3 0,-3 5,-2 6,-2 12,-6 0,0 1,0 2,0l20 13c1,0 2,0 2,0l80 -46c1,-1 1,-2 1,-2l0 -92c0,-1 0,-2 -1,-2l-80 -46c0,0 -1,0 -2,0l-79 46c-1,0 -2,1 -2,2l0 92c0,0 1,1 2,2l21 12c12,6 19,-1 19,-8l0 -90c0,-2 1,-3 3,-3l10 0c1,0 2,1 2,3l0 90c0,16 -9,25 -23,25 -5,0 -9,0 -19,-5l-21 -12c-5,-3 -8,-9 -8,-14l0 -92c0,-6 3,-12 8,-15l80 -45c5,-3 12,-3 17,0l79 45c5,3 8,9 8,15l0 92c0,6 -3,11 -8,14l-79 46c-3,1 -6,2 -9,2l0 0 0 0zm0 0l0 0 0 0z"/>
  <path class="fil2" d="M463 479c-35,0 -42,-16 -42,-29 0,-2 1,-3 2,-3l10 0c1,0 2,1 3,2 1,11 6,16 27,16 16,0 24,-4 24,-13 0,-5 -2,-9 -28,-11 -22,-2 -36,-7 -36,-24 0,-16 14,-26 37,-26 25,0 38,9 39,28 0,1 0,1 0,2 -1,0 -1,0 -2,0l-10 0c-2,0 -3,0 -3,-1 -2,-11 -8,-15 -25,-15 -18,0 -20,6 -20,11 0,6 3,8 27,11 25,3 36,8 36,25 0,17 -14,27 -39,27l0 0 0 0zm96 -97l3 0c2,0 3,-2 3,-2 0,-3 -2,-3 -3,-3l-3 0 0 5 0 0zm-3 -8l6 0c2,0 6,0 6,5 0,3 -2,4 -3,4 2,0 2,2 3,4 0,1 0,4 1,5l-4 0c0,-1 -1,-6 -1,-6 0,-1 0,-1 -2,-1l-3 0 0 7 -3 0 0 -18 0 0zm-7 9c0,7 6,13 13,13 7,0 13,-6 13,-13 0,-7 -6,-13 -13,-13 -7,0 -13,6 -13,13l0 0 0 0zm28 0c0,8 -7,15 -15,15 -8,0 -15,-6 -15,-15 0,-9 7,-15 15,-15 8,0 15,6 15,15l0 0zm0 0l0 0 0 0z"/>
  <path class="fil2" d="M192 184c0,-4 -1,-7 -5,-9l-84 -49c-1,0 -3,-1 -4,-1l-1 0c-2,0 -4,1 -5,1l-84 49c-3,2 -5,5 -5,9l0 130c0,2 1,4 2,5 2,0 4,0 5,0l51 -29c3,-2 5,-5 5,-9l0 -61c0,-3 2,-7 5,-9l21 -12c2,-1 3,-1 5,-1 2,0 4,0 5,1l21 12c4,2 6,6 6,9l0 61c0,4 1,7 5,9l50 28c1,1 3,1 5,0 1,0 2,-2 2,-4l0 -130 0 0zm398 68c0,0 -1,1 -2,2l-29 17c0,0 -1,0 -2,0l-29 -17c-1,-1 -1,-2 -1,-2l0 -34c0,-1 0,-1 1,-2l29 -17c1,0 2,0 2,0l29 17c1,1 2,1 2,2l0 34zm7 -248c-1,0 -3,0 -5,0 -1,1 -2,3 -2,5l0 129c0,1 -1,3 -2,3 -1,1 -2,1 -3,0l-22 -12c-3,-2 -7,-2 -10,0l-84 49c-3,1 -5,5 -5,8l0 98c0,3 2,7 5,8l84 49c3,2 7,2 10,0l85 -49c3,-1 5,-5 5,-8l0 -243c0,-3 -2,-7 -5,-9l-51 -28zm281 213c3,-1 5,-5 5,-8l0 -24c0,-4 -2,-7 -5,-9l-84 -48c-3,-2 -7,-2 -10,0l-84 48c-3,2 -5,5 -5,9l0 97c0,4 2,7 5,9l83 48c3,2 7,2 10,0l51 -28c2,-1 3,-3 3,-5 0,-2 -1,-3 -3,-4l-85 -49c-1,-1 -2,-2 -2,-4l0 -31c0,-1 1,-3 2,-4l27 -15c1,-1 3,-1 5,0l26 15c2,1 3,3 3,4l0 24c0,2 1,4 2,5 2,1 4,1 5,0l51 -30 0 0zm0 0z"/>
  <path class="fil2" d="M788 213c0,-1 1,-1 2,0l16 9c0,0 1,1 1,2l0 18c0,1 -1,2 -1,2l-16 9c-1,1 -2,1 -2,0l-16 -9c-1,0 -1,-1 -1,-2l0 -18c0,-1 0,-2 1,-2l16 -9 0 0zm0 0z"/>
  <path class="fil3" d="M330 348c-2,0 -4,0 -5,-1l-84 -49c-4,-1 -5,-5 -5,-8l0 -98c0,-3 1,-7 5,-9l84 -48c1,-1 3,-1 5,-1 1,0 3,0 5,1l84 48c3,2 5,6 5,9l0 98c0,3 -2,7 -5,8l-84 49c-2,1 -4,1 -5,1z"/>
 </g>
</svg>
