<?xml version="1.0" encoding="UTF-8"?>
<!DOCTYPE svg PUBLIC "-//W3C//DTD SVG 1.1//EN" "http://www.w3.org/Graphics/SVG/1.1/DTD/svg11.dtd">
<!-- Creator: CorelDRAW SE -->
<svg xmlns="http://www.w3.org/2000/svg" xml:space="preserve" width="90.6318mm" height="60.7867mm" version="1.1" style="shape-rendering:geometricPrecision; text-rendering:geometricPrecision; image-rendering:optimizeQuality; fill-rule:evenodd; clip-rule:evenodd"
viewBox="0 0 574 385"
 xmlns:xlink="http://www.w3.org/1999/xlink">
 <defs>
  <style type="text/css">
   <![CDATA[
    .str0 {stroke:#FEFEFE;stroke-width:1.5842}
    .fil1 {fill:none}
    .fil0 {fill:#757575}
   ]]>
  </style>
 </defs>
 <g id="Ebene_x0020_1">
  <metadata id="CorelCorpID_0Corel-Layer"/>
  <g id="_530932888">
   <g>
    <g id="_569286328">
     <path class="fil0" d="M299 302l4 -4c1,0 1,-1 2,-1 0,-1 1,-2 2,-3 1,-1 2,-2 3,-3l17 -22c4,-5 2,-3 11,-4 10,-2 22,-3 32,-6 2,0 4,-1 6,-1 5,18 8,48 1,66 -6,15 -17,15 -30,10l-13 -6c-3,-1 -5,-3 -7,-4 -6,-4 -12,-9 -18,-13l-10 -9zm-105 1c0,-12 0,-25 3,-37 0,-2 1,-6 1,-8 9,2 16,3 25,5 4,1 9,1 13,2 9,1 8,0 11,4 6,9 14,17 21,25 1,2 2,3 3,4 2,2 3,3 4,4 0,1 -1,2 -2,3 -1,1 -2,1 -3,2 -13,13 -36,28 -54,30 -6,0 -10,-1 -13,-4 -4,-3 -6,-9 -7,-13 -1,-5 -2,-11 -2,-17zm93 -12c-1,-1 -8,-10 -10,-12l-4 -4c-1,-1 -5,-6 -6,-8 2,0 3,1 5,1l30 0c3,0 3,-1 5,-1 -1,3 -3,4 -4,6 -1,1 -2,2 -3,3l-7 9c-1,1 -5,5 -6,6zm55 -44c2,-3 4,-5 5,-8 4,-7 7,-12 10,-17l5 -9 5 14c1,1 1,2 1,3l4 12 -7 1c-6,1 -18,4 -23,4zm-130 -34l20 34c-6,0 -23,-4 -30,-5l10 -29zm160 -20l8 -22c2,-4 7,-19 8,-23 3,1 17,6 24,9 10,5 12,6 22,12 2,2 9,7 11,10 5,7 10,13 3,23 -7,11 -24,21 -35,26l-15 6c-3,1 -7,2 -10,3 0,-3 -2,-8 -3,-12 -4,-11 -7,-17 -11,-27 0,-1 -2,-5 -2,-5zm-186 -45l12 34c1,2 1,3 2,5 3,7 3,4 0,11 0,2 -1,3 -2,5l-4 11c-1,2 -1,4 -2,6l-6 17c-3,-1 -16,-5 -20,-7 -3,-1 -6,-3 -9,-4 -4,-2 -12,-7 -17,-10 -9,-8 -23,-20 -14,-33 7,-9 16,-16 26,-21l5 -2c5,-3 25,-12 29,-12zm68 -13c4,0 12,-1 16,-1 3,0 6,0 8,0l9 0c6,0 11,0 17,0l17 1 17 28c2,4 15,28 15,30 0,0 -3,6 -3,7l-29 50c-5,0 -10,1 -13,1l-21 0c-1,0 -2,0 -3,0 -6,0 -17,0 -21,-1l-9 0c-7,-11 -18,-26 -23,-38l-9 -17c0,-1 -1,-2 -1,-2l6 -13c1,-1 1,-1 1,-2l4 -7c2,-3 3,-5 4,-8l17 -26c0,-1 0,0 1,-2zm88 3l15 2c3,1 5,1 7,2l8 1c-1,2 -2,6 -2,8 -2,3 -6,18 -8,21 -1,-1 -2,-3 -2,-4l-18 -30zm-130 34c-1,-3 -9,-24 -10,-29l22 -4c2,0 6,-1 8,-1 -1,1 -2,3 -3,4 0,1 -1,3 -2,4 -4,6 -10,17 -13,24l-2 2zm55 -54c1,-1 1,-2 2,-3 1,-1 2,-2 3,-3 3,-4 13,-16 15,-17 3,2 18,20 20,23 -4,0 -6,-1 -9,-1l-22 0c-4,0 -6,1 -9,1zm-22 1c-7,0 -28,4 -36,6l-11 2c-5,-20 -8,-47 -1,-66 3,-8 8,-12 17,-12 5,-1 11,1 15,3 5,2 9,4 13,6l23 16c1,1 9,7 10,9 -1,1 -6,6 -8,8l-4 5c-3,3 -16,19 -18,23zm54 -36l11 -10c9,-8 27,-20 39,-23 6,-2 16,-4 22,2 7,7 10,19 10,29 0,3 0,4 0,6l-1 12c0,4 0,7 -1,12l-3 16c-2,0 -3,-1 -5,-1l-18 -3c-4,-1 -7,-2 -11,-2 -4,-1 -8,-2 -13,-2 -2,-3 -19,-24 -22,-27l-8 -9zm-12 -12c-2,-2 -5,-5 -7,-7 -2,-1 -3,-2 -4,-3 -7,-5 -13,-10 -21,-14l-6 -4c-13,-8 -30,-14 -45,-10 -3,1 -6,2 -8,4 -4,2 -7,6 -10,10 -1,1 -1,1 -1,2 -1,1 -2,2 -2,4 -4,9 -6,19 -6,29 -1,6 -1,5 0,11l0 12c1,8 2,15 4,22 0,1 1,4 1,5 -1,0 -2,1 -3,1 -6,2 -11,4 -16,6 -2,1 -4,1 -6,2 -5,2 -12,6 -17,9l-5 3c-24,16 -40,38 -19,64 4,4 9,8 14,12 1,1 3,2 5,3 7,5 14,9 22,12l6 3c2,0 4,1 6,2 4,2 9,3 13,4l-2 11c-2,10 -4,28 -3,39 0,2 0,4 0,6 2,16 6,33 21,41 8,4 19,4 28,2 2,0 4,-1 5,-1 2,-1 4,-2 6,-2 9,-5 18,-10 27,-16 6,-4 11,-8 16,-12 3,-2 5,-5 8,-7 1,2 2,2 3,3 6,6 13,11 19,16 1,1 2,1 2,1l9 6c4,2 7,4 11,6 5,2 10,4 16,6 10,2 22,2 31,-4 21,-14 21,-52 17,-75l-2 -14c-2,-7 -3,-5 8,-9 7,-2 14,-5 21,-8 4,-2 7,-4 11,-6 12,-7 24,-17 31,-29 8,-17 0,-31 -11,-43 -1,-1 -1,-1 -2,-2l-5 -4c-1,0 -2,-1 -3,-2 -4,-3 -10,-7 -16,-10 -1,-1 -3,-1 -5,-2 -9,-5 -18,-8 -28,-11 -1,-1 -2,-1 -3,-1 6,-25 10,-64 -4,-86 -12,-18 -32,-17 -51,-9 -2,0 -3,1 -5,2 -3,1 -5,3 -8,4 -9,5 -23,15 -30,22l-5 4c-1,1 -1,1 -2,2l0 0z"/>
     <path class="fil0" d="M253 190c0,8 1,13 5,20 4,6 8,10 15,13 14,7 31,3 39,-8 8,-9 11,-19 8,-31 -2,-6 -5,-11 -9,-16 -3,-3 -6,-4 -10,-6 -8,-4 -18,-4 -27,-1 -6,3 -10,6 -14,11 -3,4 -7,12 -7,18z"/>
    </g>
   </g>
   <rect class="fil1 str0" x="1" y="1" width="573" height="384"/>
  </g>
 </g>
</svg>
