<?xml version="1.0" encoding="UTF-8"?>
<!DOCTYPE svg PUBLIC "-//W3C//DTD SVG 1.1//EN" "http://www.w3.org/Graphics/SVG/1.1/DTD/svg11.dtd">
<!-- Creator: CorelDRAW SE -->
<svg xmlns="http://www.w3.org/2000/svg" xml:space="preserve" width="90.6318mm" height="60.7867mm" version="1.1" style="shape-rendering:geometricPrecision; text-rendering:geometricPrecision; image-rendering:optimizeQuality; fill-rule:evenodd; clip-rule:evenodd"
viewBox="0 0 523 351"
 xmlns:xlink="http://www.w3.org/1999/xlink">
 <defs>
  <style type="text/css">
   <![CDATA[
    .str0 {stroke:#FEFEFE;stroke-width:1.44225}
    .fil3 {fill:none}
    .fil1 {fill:#B2B3B3}
    .fil0 {fill:#2B2A29}
    .fil2 {fill:#5ED4F4}
   ]]>
  </style>
 </defs>
 <g id="Ebene_x0020_1">
  <metadata id="CorelCorpID_0Corel-Layer"/>
  <path class="fil0" d="M164 123c0,-2 -1,-3 -1,-4 -1,-6 -2,-13 -3,-20l-1 -11c0,-1 0,-3 0,-5 0,-2 0,-3 0,-5 1,-9 2,-19 6,-27 0,-2 1,-3 2,-4 0,0 0,-1 1,-2 3,-4 5,-7 10,-10 2,-1 5,-2 8,-3 14,-3 29,2 41,9l6 4c0,0 0,0 0,0 7,4 13,8 19,13 1,1 2,2 4,3 1,2 3,4 5,5 0,0 1,0 1,-1l5 -4c4,-3 8,-7 13,-10 4,-4 9,-7 14,-10 3,-1 5,-2 8,-4 1,0 3,-1 4,-1 17,-7 37,-9 48,8 14,21 10,55 5,78 0,1 1,1 1,1 9,3 17,6 26,10 1,1 3,2 5,3 5,2 10,5 15,9 0,0 1,1 2,1 0,0 0,0 0,0l4 4c1,1 1,1 2,2 11,11 18,25 10,40 -6,12 -17,21 -28,27 -3,2 -7,4 -10,6 -7,3 -13,5 -20,8 0,0 -6,2 -7,2 0,1 1,3 1,4l2 13c4,21 4,57 -16,70 -9,6 -20,5 -30,3 -5,-1 -9,-3 -14,-5 -4,-2 -7,-4 -11,-6l-7 -5c-1,0 -2,-1 -2,-1 0,0 0,0 0,0 -6,-5 -13,-9 -18,-15 -1,0 -2,-1 -2,-1 -2,1 -4,3 -6,5 -5,4 -10,8 -15,11 -8,6 -16,10 -25,14 -1,1 -3,1 -5,2 -2,1 -3,1 -5,1 -8,2 -19,3 -26,-2 -15,-7 -18,-24 -20,-38 0,-2 0,-4 0,-6 -2,-10 1,-26 3,-36l1 -8c-3,-1 -7,-2 -11,-3 -1,-1 -3,-2 -5,-3l-5 -2c-8,-3 -14,-7 -21,-11 -2,-1 -3,-2 -5,-3 -4,-3 -8,-7 -12,-11 -7,-8 -11,-18 -9,-29 2,-13 15,-24 26,-31l5 -4c5,-2 10,-5 15,-7 2,-1 4,-2 6,-3 5,-2 9,-4 14,-5 1,0 1,0 2,0zm137 -12c3,0 7,1 10,1 4,1 7,1 11,2l16 3c1,0 2,0 3,1l3 -14c0,-4 0,-7 1,-10l0 -11c0,-2 0,-4 0,-6 0,-8 -2,-19 -8,-25 -5,-5 -13,-3 -19,-1 -10,2 -27,13 -35,20l-9 8 7 7c1,1 3,3 4,5 2,2 4,5 6,7 2,3 4,6 6,8 1,2 3,3 4,5zm-79 0c1,-2 2,-3 3,-4 1,-2 3,-5 5,-7 3,-3 6,-7 9,-10l3 -4c1,-2 5,-5 6,-7 -1,-1 -3,-3 -3,-3 -2,-2 -3,-3 -5,-4l-21 -15c-3,-2 -7,-4 -11,-5 -4,-1 -9,-3 -13,-3 -8,0 -12,3 -14,10 -6,17 -4,41 0,59l9 -2c5,-1 11,-2 16,-3 3,-1 6,-1 10,-2 2,0 4,0 6,0zm39 -19c0,0 -1,1 -2,2 -1,1 -3,3 -4,5 -2,2 -4,5 -6,7 -1,1 -2,2 -3,3 0,0 0,0 0,0 2,0 3,0 5,0l20 0c2,0 4,0 5,0 -3,-5 -12,-14 -15,-17zm-68 65c4,-7 8,-15 12,-21 1,-2 2,-3 3,-4 0,0 0,-1 0,-1 -1,0 -2,0 -4,1l-18 3c0,1 1,3 1,4 1,2 2,5 3,8 1,2 2,5 3,8 0,1 0,1 0,2zm121 -26l15 24c0,1 0,1 0,2 1,-1 1,-1 1,-1 1,-2 1,-4 2,-6 1,-3 2,-7 3,-10 1,-1 1,-3 2,-5l-5 -1c-3,0 -5,-1 -7,-1l-11 -2zm-82 -3c0,0 0,1 -1,1l-15 24c-1,2 -2,4 -3,6l-4 7c0,0 0,0 0,0 0,1 0,1 -1,2l-5 11c0,1 0,1 0,1 0,0 0,0 0,0l8 16c3,6 7,12 11,18 3,5 7,11 10,16l7 0c0,0 0,0 0,0 3,0 7,0 10,1 3,0 6,0 9,0 1,0 2,0 3,0l20 -1c2,0 5,0 7,0 1,0 2,0 3,0l26 -45c1,-2 3,-5 3,-6 0,-1 -2,-4 -2,-5 -2,-3 -3,-6 -5,-8 -2,-5 -4,-9 -7,-13l-15 -25 -14 -1c-6,0 -11,0 -16,0l-7 0c-3,0 -6,0 -8,0 -5,0 -9,1 -14,1zm-63 12c-4,1 -10,4 -13,5 -4,1 -8,3 -13,5l-4 2c-9,5 -17,11 -23,19 -8,11 4,22 13,28 2,1 5,3 7,4 3,2 5,3 8,5 3,1 5,2 8,4 3,1 6,2 9,3 2,1 5,2 8,3l4 -15c1,-2 1,-3 2,-5l4 -10c1,-2 1,-3 2,-5 0,0 2,-4 2,-4 0,0 -1,-1 -1,-1 0,-1 -1,-2 -1,-4 -1,-1 -2,-3 -2,-4 0,0 0,0 0,0l-10 -30zm171 39c0,1 1,3 2,4 3,9 7,17 9,25 1,3 3,7 3,10 3,-1 6,-2 8,-3l13 -6c10,-4 25,-13 32,-22 5,-9 2,-13 -3,-20 -2,-2 -7,-7 -10,-8 -3,-2 -6,-4 -10,-6 -3,-2 -6,-4 -9,-5 -3,-2 -6,-3 -9,-4 -3,-1 -6,-2 -8,-3 -1,0 -3,0 -4,-1 -1,3 -2,6 -3,9 -1,4 -2,7 -3,11l-8 19zm-147 22l-7 21c4,1 8,2 11,3 3,0 6,1 9,1 0,0 1,1 3,1l-16 -26zm121 26c3,-1 6,-1 8,-2 3,0 7,-1 10,-2l5 -1 -3 -8c0,0 0,0 0,0 0,-1 -1,-2 -1,-4l-4 -9 -2 5c-4,5 -6,11 -10,16 -1,1 -2,3 -3,5zm-52 39c0,0 1,-1 1,-2 1,0 2,-1 2,-2 0,0 0,0 0,0l7 -8c1,-1 2,-2 2,-3 1,-1 2,-1 3,-2 -1,0 -1,0 -2,0l-27 0c-1,0 -1,0 -2,0 2,1 3,3 4,4l3 4c2,1 3,3 5,5 1,1 2,3 4,4zm-13 13c-1,-1 -2,-2 -3,-3 -1,-1 -2,-2 -3,-4 -7,-7 -13,-14 -19,-23 0,0 -1,-2 -2,-2 -1,-1 -6,-1 -7,-1 -4,0 -8,-1 -12,-2 -7,-1 -14,-2 -21,-4 -1,2 -1,4 -2,6 -2,11 -2,22 -2,33 0,5 1,11 2,15 1,4 3,9 5,11 4,4 7,4 11,4 17,-2 37,-16 49,-27 1,-1 2,-1 2,-2 1,-1 1,-1 2,-1zm26 0l7 7c5,4 11,8 16,11 2,1 4,3 7,4l11 5c11,4 21,5 26,-8 6,-16 3,-41 -1,-58 -1,0 -3,1 -4,1 -10,2 -20,4 -29,5 -2,0 -4,0 -6,1 0,0 -1,0 -1,0 -1,0 -2,2 -2,3 0,0 0,0 0,0l-16 19c0,0 0,0 0,0 -1,1 -2,2 -3,4 0,0 -1,1 -1,1 -1,1 -2,2 -2,2l-2 3z"/>
  <path class="fil0" d="M229 176c0,8 1,13 5,20 3,5 7,9 14,12 13,6 29,3 38,-8 7,-9 10,-18 7,-29 -2,-6 -5,-11 -9,-15 -3,-3 -5,-5 -9,-7 -8,-3 -18,-4 -26,0 -6,2 -9,5 -13,10 -4,4 -7,12 -7,17z"/>
  <path class="fil1" d="M164 119c0,-1 -1,-2 -1,-3 -1,-7 -2,-13 -3,-20l-1 -11c0,-2 0,-4 0,-6 0,-1 0,-3 0,-4 1,-10 2,-19 6,-28 0,-1 1,-2 2,-3 0,-1 0,-1 1,-2 3,-4 5,-7 10,-10 2,-1 5,-3 8,-3 14,-4 29,2 41,9l6 3c0,0 0,0 0,0 7,4 13,9 19,14 1,1 2,2 4,3 1,1 3,3 5,5 0,-1 1,-1 1,-1l5 -4c4,-4 8,-8 13,-11 4,-3 9,-6 14,-9 3,-1 5,-3 8,-4 1,-1 3,-1 4,-2 17,-7 37,-8 48,9 14,20 10,55 5,78 0,0 1,0 1,1 9,2 17,6 26,9 1,1 3,2 5,3 5,3 10,6 15,9 0,1 1,1 2,2 0,0 0,0 0,0l4 3c1,1 1,2 2,2 11,12 18,26 10,41 -6,12 -17,20 -28,27 -3,2 -7,4 -10,5 -7,3 -13,6 -20,8 0,0 -6,2 -7,3 0,0 1,3 1,3l2 14c4,20 4,56 -16,69 -9,6 -20,6 -30,3 -5,-1 -9,-3 -14,-5 -4,-1 -7,-3 -11,-5l-7 -5c-1,-1 -2,-1 -2,-2 0,0 0,0 0,0 -6,-4 -13,-9 -18,-14 -1,-1 -2,-1 -2,-2 -2,2 -4,4 -6,5 -5,4 -10,8 -15,12 -8,5 -16,10 -25,14 -1,0 -3,1 -5,1 -2,1 -3,1 -5,2 -8,2 -19,2 -26,-2 -15,-8 -18,-24 -20,-39 0,-2 0,-3 0,-5 -2,-10 1,-26 3,-36l1 -8c-3,-1 -7,-2 -11,-4 -1,-1 -3,-1 -5,-2l-5 -2c-8,-3 -14,-7 -21,-11 -2,-1 -3,-2 -5,-4 -4,-3 -8,-7 -12,-11 -7,-8 -11,-17 -9,-28 2,-14 15,-25 26,-32l5 -3c5,-3 10,-6 15,-8 2,-1 4,-1 6,-2 5,-2 9,-4 14,-5 1,-1 1,-1 2,-1zm137 -12c3,0 7,1 10,2 4,0 7,1 11,1l16 3c1,1 2,1 3,1l3 -14c0,-3 0,-6 1,-10l0 -11c0,-2 0,-3 0,-5 0,-8 -2,-20 -8,-26 -5,-4 -13,-2 -19,-1 -10,3 -27,13 -35,21l-9 7 7 7c1,2 3,4 4,5 2,3 4,5 6,8 2,2 4,5 6,8 1,1 3,3 4,4zm-79 0c1,-1 2,-2 3,-4 1,-2 3,-4 5,-6 3,-4 6,-7 9,-11l3 -4c1,-1 5,-5 6,-7 -1,-1 -3,-2 -3,-3 -2,-1 -3,-3 -5,-4l-21 -14c-3,-2 -7,-4 -11,-5 -4,-2 -9,-4 -13,-3 -8,0 -12,3 -14,10 -6,17 -4,41 0,58l9 -2c5,-1 11,-2 16,-3 3,0 6,-1 10,-1 2,0 4,-1 6,-1zm39 -19c0,1 -1,2 -2,2 -1,2 -3,3 -4,5 -2,3 -4,5 -6,8 -1,1 -2,1 -3,2 0,0 0,0 0,1 2,-1 3,-1 5,-1l20 0c2,0 4,0 5,1 -3,-5 -12,-15 -15,-18zm-68 65c4,-7 8,-14 12,-21 1,-1 2,-2 3,-3 0,-1 0,-1 0,-2 -1,1 -2,1 -4,1l-18 4c0,1 1,2 1,3 1,3 2,6 3,8 1,3 2,6 3,8 0,1 0,2 0,2zm121 -25l15 24c0,0 0,1 0,1 1,0 1,0 1,-1 1,-2 1,-4 2,-6 1,-3 2,-6 3,-9 1,-2 1,-4 2,-5l-5 -1c-3,-1 -5,-1 -7,-2l-11 -1zm-82 -3c0,0 0,0 -1,1l-15 23c-1,3 -2,5 -3,7l-4 7c0,0 0,0 0,0 0,0 0,1 -1,1l-5 12c0,0 0,0 0,1 0,0 0,0 0,0l8 15c3,7 7,13 11,19 3,5 7,10 10,15l7 1c0,0 0,0 0,0 3,0 7,0 10,0 3,0 6,0 9,0 1,0 2,0 3,0l20 0c2,0 5,-1 7,-1 1,0 2,0 3,0l26 -45c1,-1 3,-4 3,-6 0,-1 -2,-3 -2,-4 -2,-3 -3,-6 -5,-9 -2,-4 -4,-9 -7,-13l-15 -24 -14 -1c-6,0 -11,-1 -16,-1l-7 1c-3,0 -6,0 -8,0 -5,0 -9,1 -14,1zm-63 12c-4,0 -10,3 -13,4 -4,2 -8,4 -13,6l-4 2c-9,4 -17,10 -23,19 -8,11 4,21 13,27 2,2 5,4 7,5 3,1 5,3 8,4 3,2 5,3 8,4 3,1 6,2 9,3 2,1 5,2 8,3l4 -15c1,-1 1,-3 2,-5l4 -10c1,-1 1,-3 2,-4 0,-1 2,-4 2,-5 0,0 -1,0 -1,-1 0,-1 -1,-2 -1,-3 -1,-2 -2,-3 -2,-5 0,0 0,0 0,0l-10 -29zm171 38c0,2 1,3 2,5 3,8 7,16 9,25 1,3 3,6 3,9 3,-1 6,-2 8,-3l13 -5c10,-4 25,-14 32,-23 5,-8 2,-12 -3,-19 -2,-3 -7,-7 -10,-9 -3,-2 -6,-4 -10,-6 -3,-1 -6,-3 -9,-5 -3,-1 -6,-2 -9,-3 -3,-1 -6,-2 -8,-3 -1,0 -3,-1 -4,-1 -1,3 -2,6 -3,9 -1,3 -2,7 -3,10l-8 19zm-147 23l-7 21c4,1 8,2 11,2 3,1 6,1 9,2 0,0 1,0 3,0l-16 -25zm121 25c3,0 6,-1 8,-1 3,-1 7,-1 10,-2l5 -1 -3 -9c0,0 0,0 0,0 0,-1 -1,-2 -1,-3l-4 -10 -2 5c-4,6 -6,11 -10,16 -1,2 -2,4 -3,5zm-52 40c0,-1 1,-2 1,-2 1,-1 2,-2 2,-2 0,-1 0,-1 0,-1l7 -7c1,-1 2,-2 2,-3 1,-1 2,-2 3,-3 -1,0 -1,0 -2,0l-27 0c-1,0 -1,0 -2,0 2,2 3,4 4,5l3 3c2,2 3,4 5,6 1,0 2,2 4,4zm-13 12c-1,-1 -2,-1 -3,-2 -1,-2 -2,-3 -3,-4 -7,-8 -13,-15 -19,-23 0,-1 -1,-2 -2,-3 -1,0 -6,0 -7,0 -4,-1 -8,-1 -12,-2 -7,-1 -14,-3 -21,-4 -1,2 -1,4 -2,5 -2,11 -2,23 -2,34 0,5 1,10 2,15 1,3 3,8 5,11 4,3 7,3 11,3 17,-1 37,-16 49,-27 1,0 2,-1 2,-2 1,0 1,0 2,-1zm26 0l7 7c5,4 11,8 16,11 2,2 4,3 7,4l11 6c11,4 21,4 26,-8 6,-16 3,-42 -1,-59 -1,1 -3,1 -4,1 -10,3 -20,4 -29,6 -2,0 -4,0 -6,0 0,0 -1,0 -1,0 -1,1 -2,3 -2,3 0,0 0,0 0,0l-16 19c0,0 0,0 0,0 -1,2 -2,3 -3,4 0,1 -1,1 -1,2 -1,1 -2,1 -2,2l-2 2z"/>
  <path class="fil1" d="M229 173c0,7 1,13 5,19 3,6 7,10 14,13 13,6 29,2 38,-8 7,-9 10,-18 7,-30 -2,-6 -5,-10 -9,-15 -3,-3 -5,-4 -9,-6 -8,-4 -18,-4 -26,-1 -6,3 -9,6 -13,11 -4,4 -7,11 -7,17z"/>
  <path class="fil2" d="M273 275l3 -3c0,-1 1,-1 1,-2 1,-1 1,-1 2,-2 1,-1 2,-2 3,-4l16 -19c3,-5 1,-3 9,-4 10,-1 21,-3 30,-5 1,0 4,-1 5,-1 4,17 8,44 1,60 -5,14 -15,13 -27,9l-12 -5c-2,-1 -4,-3 -7,-4 -5,-3 -11,-8 -15,-12l-9 -8zm-97 1c0,-11 0,-23 3,-34 0,-2 1,-5 1,-7 8,2 15,3 23,4 4,1 8,2 12,2 8,1 7,0 10,4 6,8 13,16 19,23 1,1 2,2 3,4 1,1 3,2 3,3 0,1 -1,2 -1,2 -1,1 -2,2 -3,2 -12,12 -33,26 -50,28 -5,0 -8,-1 -12,-4 -2,-3 -5,-8 -6,-12 -1,-4 -2,-10 -2,-15zm86 -11c-2,-1 -8,-9 -10,-11l-3 -3c-1,-2 -5,-6 -6,-8 2,0 3,1 5,1l27 0c2,0 3,-1 5,-1 -2,2 -3,4 -5,6 0,1 -1,2 -2,2l-7 8c0,1 -4,5 -4,6zm50 -40c1,-3 3,-5 4,-7 4,-6 6,-11 9,-16l5 -8 4 13c1,1 1,1 1,3l4 10 -7 1c-5,1 -16,4 -20,4zm-119 -31l18 31c-5,0 -21,-4 -27,-5l9 -26zm145 -19l8 -19c2,-4 6,-17 7,-21 3,1 16,5 22,8 9,4 11,5 20,11 2,2 8,6 10,9 5,7 9,12 3,21 -7,10 -22,19 -32,23l-13 6c-3,1 -7,2 -10,3 0,-3 -2,-8 -3,-11 -3,-10 -6,-15 -9,-25 -1,-1 -3,-4 -3,-5zm-168 -40l10 31c1,1 1,3 2,4 3,7 3,3 0,10 0,2 -1,3 -2,5l-3 10c-1,2 -2,3 -2,5l-5 16c-4,-1 -16,-5 -18,-7 -3,-1 -6,-2 -9,-3 -4,-2 -11,-7 -15,-9 -9,-7 -22,-18 -13,-30 6,-9 15,-15 24,-20l4 -2c5,-2 22,-10 27,-10zm61 -12c4,0 11,-1 15,-1 2,0 5,0 7,0l8 0c6,0 10,0 16,0l15 1 16 25c2,4 14,26 14,27 0,1 -3,6 -4,7l-26 46c-4,0 -9,0 -11,0l-19 1c-1,0 -2,0 -4,0 -5,0 -14,0 -19,-1l-8 0c-7,-11 -16,-24 -21,-35l-8 -16c0,0 -1,-1 -1,-1l6 -12c0,-1 0,-1 1,-2l3 -7c2,-2 3,-4 4,-6l15 -24c1,-1 1,-1 1,-2zm81 3l13 2c3,0 5,1 7,1l6 2c0,1 -1,4 -1,6 -2,3 -6,16 -7,19 -1,0 -2,-2 -3,-3l-15 -27zm-119 31c-1,-3 -9,-22 -9,-26l20 -4c2,-1 6,-1 7,-1 0,1 -1,2 -2,3 -1,2 -2,3 -2,4 -4,6 -10,16 -13,22l-1 2zm50 -50c1,-1 1,-2 2,-3 1,-1 2,-1 2,-2 3,-4 12,-14 14,-16 3,2 17,18 18,21 -3,0 -5,0 -8,0l-20 0c-3,0 -5,0 -8,0zm-20 2c-6,0 -25,3 -32,5l-11 2c-4,-18 -7,-43 0,-61 2,-7 6,-10 15,-11 4,0 10,2 14,3 4,2 8,4 11,6l21 14c1,1 8,7 9,8 0,2 -5,6 -7,8l-3 4c-3,4 -15,18 -17,22zm49 -34l10 -8c8,-8 25,-19 36,-21 6,-2 15,-4 20,1 6,6 9,18 8,27 0,2 1,3 1,5l-1 11c0,4 0,6 -1,11l-3 15c-1,0 -3,-1 -4,-1l-16 -3c-4,-1 -7,-1 -11,-2 -3,0 -7,-1 -11,-1 -2,-4 -17,-23 -20,-26l-8 -8zm-11 -11c-2,-1 -4,-4 -6,-5 -2,-1 -3,-2 -4,-3 -6,-5 -12,-10 -18,-14l-6 -3c-12,-7 -27,-12 -41,-9 -3,1 -6,2 -8,3 -4,3 -6,6 -9,10 -1,0 -1,1 -1,1 -1,2 -1,2 -2,4 -3,8 -5,17 -5,27 0,5 -1,4 0,10l0 11c1,6 2,13 4,19 0,2 1,4 1,5 -2,0 -2,1 -3,1 -5,1 -10,3 -15,5 -2,1 -3,2 -5,2 -5,2 -11,6 -15,8l-5 3c-22,15 -37,35 -17,58 4,4 8,8 12,11 2,1 3,3 5,4 6,3 13,8 20,10l5 3c2,0 4,1 6,2 4,1 8,3 12,4l-2 9c-2,9 -4,26 -3,36 0,1 0,3 0,5 2,14 6,30 19,38 8,4 18,4 26,1 2,0 3,0 5,-1 1,-1 3,-1 5,-2 8,-3 17,-8 24,-13 5,-4 10,-8 15,-12 2,-2 4,-4 7,-6 1,1 2,2 3,3 5,5 12,10 18,14 0,1 1,1 1,1l8 5c3,2 7,4 11,6 4,2 9,4 14,5 9,2 20,3 28,-3 19,-13 19,-48 16,-68l-3 -13c-1,-7 -2,-5 8,-8 6,-2 13,-5 19,-8 4,-2 7,-4 10,-5 11,-7 22,-15 28,-27 7,-15 0,-28 -10,-39 -1,0 -1,-1 -2,-1l-4 -4c-1,-1 -2,-1 -2,-2 -5,-3 -10,-6 -15,-9 -2,-1 -3,-1 -5,-2 -8,-4 -17,-7 -25,-10 -1,0 -2,-1 -3,-1 5,-23 9,-58 -4,-78 -11,-16 -29,-15 -46,-9 -2,1 -3,2 -4,2 -3,1 -6,3 -8,4 -9,5 -21,14 -27,20l-5 4c-1,1 -1,1 -2,1l0 0z"/>
  <path class="fil2" d="M231 173c0,7 0,12 4,18 4,6 7,10 14,12 12,6 27,3 35,-7 7,-9 10,-18 7,-28 -1,-6 -4,-10 -8,-15 -3,-2 -5,-4 -9,-6 -7,-3 -17,-3 -24,0 -6,2 -9,5 -13,10 -3,4 -6,10 -6,16z"/>
  <rect class="fil3 str0" x="1" y="1" width="521" height="349"/>
 </g>
</svg>
