<?xml version="1.0" encoding="UTF-8"?>
<!DOCTYPE svg PUBLIC "-//W3C//DTD SVG 1.1//EN" "http://www.w3.org/Graphics/SVG/1.1/DTD/svg11.dtd">
<!-- Creator: CorelDRAW SE -->
<svg xmlns="http://www.w3.org/2000/svg" xml:space="preserve" width="83.6514mm" height="52.0932mm" version="1.1" style="shape-rendering:geometricPrecision; text-rendering:geometricPrecision; image-rendering:optimizeQuality; fill-rule:evenodd; clip-rule:evenodd"
viewBox="0 0 638 397"
 xmlns:xlink="http://www.w3.org/1999/xlink">
 <defs>
  <style type="text/css">
   <![CDATA[
    .str0 {stroke:#FEFEFE;stroke-width:1.52495}
    .fil0 {fill:none}
    .fil1 {fill:#757575}
    .fil2 {fill:#FEFEFE;fill-rule:nonzero}
   ]]>
  </style>
 </defs>
 <g id="Ebene_x0020_1">
  <metadata id="CorelCorpID_0Corel-Layer"/>
  <rect class="fil0 str0" x="1" y="1" width="636" height="396"/>
  <path class="fil1" d="M223 196c0,-1 0,-4 0,-5 1,-2 0,-4 1,-5 0,-2 0,-4 1,-5 0,-1 0,-2 0,-3 0,-1 1,-1 1,-2l1 -5c0,-1 2,-7 3,-8l1 -2c0,-1 0,-1 0,-1l5 -9c1,-2 2,-4 3,-5 1,-1 1,-1 1,-1 0,-1 0,-1 1,-1 0,0 0,-1 0,-1 2,-2 4,-5 6,-7l3 -3c1,-2 3,-4 5,-5 0,-1 0,-1 0,-1l4 -3c0,0 1,0 1,0l2 -2c1,-1 2,-2 4,-3l9 -5c0,0 1,0 1,0 1,-1 3,-2 4,-2 0,-1 1,-1 1,-1l4 -1c2,-1 5,-2 7,-3 1,0 3,0 4,-1l8 -1c3,-1 10,-2 13,-2 3,0 11,1 13,1l8 2c1,0 1,0 2,0 1,0 2,1 3,1 1,0 5,1 6,2 3,1 8,3 11,4l3 2c0,0 0,0 1,0 3,1 6,3 8,5 1,1 2,1 3,2 0,1 1,1 1,1l6 5c2,2 5,4 7,6 0,1 1,1 1,2l4 5 6 9c2,2 3,4 4,6 0,1 0,1 0,1 1,2 3,7 4,9l1 3c0,0 0,0 0,1 1,1 1,1 1,2l1 5c1,1 1,1 1,2l1 5c0,3 1,6 1,8 0,6 0,7 0,13 0,2 0,4 -1,5 0,3 0,6 -1,8l-1 5c-1,3 -3,8 -4,11 0,3 -2,5 -3,7l-4 7c-1,3 -5,9 -7,11l-10 10c0,1 0,1 -1,1l-4 4c-1,1 -5,3 -7,5l-4 2c-1,1 -1,1 -1,1 -1,0 -1,1 -2,1 -2,1 -6,3 -8,4l-2 1c-1,0 -1,0 -1,0 -1,0 -1,0 -1,1 -1,0 -1,0 -1,0 -1,0 -1,0 -2,0 -1,1 -10,3 -11,4 -1,0 -2,0 -3,0 -1,0 -2,0 -2,0 -1,1 -2,1 -3,1 -1,0 -2,0 -3,0 -3,0 -4,1 -8,1 -2,0 -4,0 -6,-1 -2,0 -3,0 -5,0 -2,0 -4,-1 -6,-1 -1,0 -1,0 -2,0 -3,-1 -6,-1 -8,-2 -1,0 -1,0 -2,-1 0,0 0,0 -1,0 0,0 0,0 -1,0l-8 -4c-1,0 -1,0 -1,0 -1,0 -1,0 -1,-1l-4 -2c-1,0 -2,0 -2,-1 -5,-2 -11,-7 -16,-10l-1 -1c0,-1 0,-1 -1,-1 0,-1 -1,-1 -1,-1 -2,-2 -3,-3 -5,-5l0 -1c-1,0 -1,0 -1,0 -1,-2 -4,-6 -5,-7l-3 -4c0,0 0,0 0,0 -1,-1 -1,-1 -1,-1l-7 -14c-1,-1 -2,-3 -2,-4 0,-1 0,-1 -1,-2l0 -3c-1,0 -1,0 -1,-1l-1 -3c0,-2 -1,-4 -1,-5l-1 -7c-1,-2 -1,-4 -1,-6 0,-3 0,-6 0,-10zm-81 -28c1,0 2,1 2,1l14 9c1,0 2,0 2,1 1,0 2,1 2,1l6 3c1,1 5,4 6,4l0 7c-1,3 0,7 0,10 0,1 0,1 -1,1 -2,2 -4,3 -6,4 -3,2 -5,4 -8,5 -1,1 -1,1 -1,1 -5,3 -10,6 -15,9 -1,1 -2,1 -1,2 1,1 1,2 1,3 0,1 0,1 0,1 0,1 1,1 1,2 0,0 0,1 0,1 0,1 0,1 1,2 0,1 1,5 1,7 1,0 1,1 1,1 0,1 0,1 0,2 0,0 0,0 1,1 0,2 0,4 1,6 0,0 0,0 1,1 0,1 0,1 0,1 0,1 0,1 0,2 0,1 1,1 1,1 0,1 0,2 1,3 0,0 16,0 18,0 2,0 6,0 8,0 3,1 7,0 9,1 1,0 1,1 1,2 1,0 1,0 1,1l2 4c2,3 3,5 4,7 1,2 0,3 -1,6l-3 4c-1,2 -2,4 -3,7 0,0 -1,2 -2,3l-5 10c-1,2 -3,4 -3,5 1,2 8,8 9,10 3,2 9,9 11,10 1,1 3,3 4,4 0,1 1,2 2,2 1,0 8,-4 9,-5 3,-2 6,-4 9,-5 2,-1 13,-8 14,-8 1,0 5,4 6,4l7 4c3,2 3,1 3,5 0,7 0,14 0,21 0,3 0,12 1,14l7 2c2,0 5,1 7,1l12 3c1,1 1,1 2,1 1,0 3,1 5,1 2,1 2,1 3,-1 2,-3 4,-6 6,-9 0,-1 0,-1 1,-2l6 -11c1,-1 4,-7 5,-8 1,0 7,1 8,1 2,0 8,0 9,0 0,0 0,0 1,1 0,0 0,0 0,1 1,1 1,1 2,2 0,1 1,2 2,4 1,1 1,1 1,2 2,1 2,3 4,5 0,0 0,0 0,1l2 3c0,0 1,0 1,1 0,0 1,1 1,2l3 4c0,0 1,1 1,2l3 4c1,0 1,-1 2,-1 3,0 9,-2 11,-3 1,0 1,0 2,0 2,-1 4,-1 6,-2l4 -1c0,0 0,0 1,0 1,0 1,-1 1,-1 1,0 1,0 2,0 0,0 0,0 1,0 0,-1 1,-1 1,-1 1,0 1,0 1,0 1,0 1,0 2,0 1,-1 1,-1 1,-2 1,-4 0,-9 1,-13 0,-2 0,-4 0,-6 0,-2 0,-5 0,-7l1 -9c0,-1 3,-2 4,-3 2,-1 4,-2 5,-3l6 -3c0,0 1,1 2,1l22 12c1,1 4,2 5,3 2,1 3,2 5,2l23 -24c2,-2 2,-2 1,-4l-1 -2c-2,-3 -5,-8 -6,-11 -1,0 -1,-1 -1,-2l-6 -10c-1,-2 -2,-3 -3,-4 0,-2 2,-4 2,-5 1,-1 2,-2 3,-4l3 -6c1,-2 3,-1 6,-1 4,0 8,-1 12,-1 4,0 9,0 13,0 2,0 4,0 6,0 4,-1 3,-1 4,-4 0,0 0,0 0,-1 0,0 0,-1 0,-1 0,-1 0,-1 1,-1l1 -4c0,-1 0,-1 0,-2 0,0 0,-1 0,-1 1,-2 1,-3 2,-5 0,-3 2,-8 2,-10 1,-2 1,-4 2,-6 0,-2 -1,-2 -3,-3 -4,-2 -9,-5 -13,-7l-8 -5c0,0 0,0 -1,-1l-5 -3c-3,-2 -2,0 -2,-9 0,-1 0,-10 1,-9l1 0 31 -21 -3 -11c0,-1 -1,-3 -1,-4 0,-1 -1,-2 -1,-3 0,-1 0,-1 0,-2l-3 -11c-1,-1 -1,-3 -2,-4 -3,-1 -10,-1 -13,-1 -2,0 -5,0 -7,0 -5,-1 -11,0 -17,-1 -1,0 -1,-1 -2,-2l-5 -10c-1,-2 -1,-1 -1,-3l13 -23c0,0 0,0 0,-1 1,0 1,0 1,-1 1,-2 4,-7 4,-8l-8 -8c0,-1 -1,-1 -1,-2l-3 -2c0,0 0,-1 0,-1l-1 -1c-3,-2 -11,-10 -12,-12 -2,0 -2,1 -3,1l-22 13c-1,0 -1,0 -1,0 -3,2 -5,3 -8,4 -1,-1 -3,-2 -5,-3 -1,0 -1,-1 -2,-1l-5 -3c-1,0 -2,-1 -2,-2 0,0 0,-3 0,-4 0,-6 -1,-13 -1,-19 0,-2 0,-15 -1,-16 -1,0 -3,0 -4,-1 -2,0 -4,-1 -5,-1l-14 -4c-2,0 -4,-1 -5,-1 -1,0 -2,0 -2,-1 -1,0 -2,0 -3,0 -2,-1 -2,0 -3,2 -1,0 -1,1 -1,1l-6 10c0,0 -1,1 -1,2l-3 5c-2,2 -7,11 -7,12 -1,0 -7,-1 -9,-1 -1,0 -7,0 -8,0l0 -1c0,0 0,0 0,0l-7 -11c-1,-1 -1,-2 -2,-2l-1 -2c-2,-3 -4,-6 -5,-8 -2,-2 -3,-4 -4,-6l-2 -2 -9 2c-1,0 -3,1 -4,1l-9 3c-1,0 -1,0 -2,0l-9 3c-1,0 -2,0 -2,1 -1,4 0,11 -1,17 0,1 0,3 0,5 0,2 0,4 0,6l-1 8c0,1 -1,1 -3,2 -1,1 -1,1 -2,1 0,1 -1,1 -2,1 0,1 0,1 -1,1 0,0 0,0 -1,0 0,1 -1,1 -1,1 -4,3 -3,3 -6,1l-7 -3c0,-1 0,-1 -1,-1 0,0 -1,-1 -1,-1l-1 0c-3,-2 -6,-4 -10,-6l-6 -3c-1,-1 -5,-3 -6,-3 -1,0 -1,0 -1,1 -5,5 -10,10 -15,15l-4 4c0,0 0,0 0,0l-5 5c-1,1 -1,1 0,3 1,0 1,1 1,2l16 27c1,2 0,2 -1,3l-2 3c-1,2 -2,4 -3,5 -1,2 -1,3 -2,4 -1,2 -1,1 -4,1 -4,0 -8,1 -11,1 -8,0 -16,0 -23,0 -2,0 -2,2 -2,4l-4 13c0,1 0,2 -1,3l-3 11c0,2 -1,4 -1,5zm110 17l8 0 0 -11 7 0 7 11 10 0 -9 -13c5,-1 8,-5 8,-11l0 0c0,-4 -1,-7 -3,-9 -3,-2 -6,-3 -11,-3l-17 0 0 36zm8 -18l0 -11 8 0c4,0 7,2 7,5l0 0c0,3 -3,6 -7,6l-8 0zm30 18l28 0 0 -7 -20 0 0 -7 17 0 0 -8 -17 0 0 -7 20 0 0 -7 -28 0 0 36zm48 1c8,0 14,-4 14,-11l0 -1c0,-6 -5,-9 -12,-11 -6,-1 -8,-2 -8,-4l0 0c0,-2 2,-4 5,-4 3,0 6,2 9,4l4 -6c-3,-3 -8,-5 -13,-5 -8,0 -13,5 -13,11l0 0c0,8 5,10 12,12 6,1 8,2 8,4l0 0c0,2 -2,4 -6,4 -4,0 -7,-2 -11,-5l-4 6c4,4 10,6 15,6zm28 -1l8 0 0 -29 12 0 0 -7 -31 0 0 7 11 0 0 29zm-115 64l13 0 5 -12 23 0 5 12 12 0 -23 -55 -11 0 -24 55zm22 -23l7 -17 7 17 -14 0zm44 23l12 0 0 -16 9 0c13,0 22,-7 22,-19l0 -1c0,-11 -7,-18 -20,-18l-23 0 0 54zm12 -27l0 -17 10 0c6,0 9,3 9,9l0 0c0,5 -3,8 -9,8l-10 0zm41 27l12 0 0 -54 -12 0 0 54z"/>
  <path class="fil2" d="M188 193c4,0 7,-1 9,-3 2,-2 4,-4 5,-8 0,-3 1,-8 1,-16 0,-8 0,-13 0,-16 1,-3 1,-7 2,-9 2,-2 3,-4 5,-6 1,-1 3,-2 6,-3 2,0 5,-1 9,-1l4 0 0 11 -3 0c-4,0 -8,1 -9,3 -2,2 -2,6 -2,12 0,12 -1,20 -1,23 -1,5 -3,9 -5,11 -2,3 -5,6 -9,8 5,2 9,5 11,9 2,5 4,12 4,22 0,9 0,15 0,16 0,3 1,6 3,7 1,1 4,2 8,2l3 0 0 11 -4 0c-5,0 -8,-1 -10,-1 -3,-1 -6,-3 -8,-6 -2,-2 -3,-5 -3,-9 -1,-3 -1,-9 -1,-18 0,-8 -1,-14 -2,-17 0,-3 -2,-6 -4,-8 -2,-2 -5,-3 -9,-3l0 -11z"/>
  <path class="fil2" d="M450 193l0 11c-4,0 -7,1 -9,3 -2,2 -4,5 -5,8 0,3 -1,9 -1,16 0,8 0,13 0,16 -1,4 -1,7 -3,9 -1,2 -2,4 -4,6 -2,1 -4,2 -6,3 -2,1 -5,1 -9,1l-4 0 0 -11 2 0c5,0 8,-1 10,-3 1,-2 2,-6 2,-12 0,-11 0,-19 1,-22 1,-5 2,-9 4,-12 3,-3 6,-6 10,-7 -5,-3 -9,-6 -12,-11 -2,-4 -3,-11 -3,-21 0,-9 0,-14 0,-16 0,-3 -1,-6 -3,-7 -1,-1 -4,-2 -9,-2l-2 0 0 -11 4 0c5,0 8,1 10,1 3,2 5,3 7,6 2,2 4,5 4,9 1,4 1,10 1,18 0,8 1,14 1,17 1,4 3,6 5,8 2,2 5,3 9,3z"/>
 </g>
</svg>
