<?xml version="1.0" encoding="UTF-8"?>
<!DOCTYPE svg PUBLIC "-//W3C//DTD SVG 1.1//EN" "http://www.w3.org/Graphics/SVG/1.1/DTD/svg11.dtd">
<!-- Creator: CorelDRAW SE -->
<svg xmlns="http://www.w3.org/2000/svg" xml:space="preserve" width="83.6514mm" height="52.0932mm" version="1.1" style="shape-rendering:geometricPrecision; text-rendering:geometricPrecision; image-rendering:optimizeQuality; fill-rule:evenodd; clip-rule:evenodd"
viewBox="0 0 544 339"
 xmlns:xlink="http://www.w3.org/1999/xlink">
 <defs>
  <style type="text/css">
   <![CDATA[
    .str0 {stroke:#FEFEFE;stroke-width:1.29984}
    .fil0 {fill:none}
    .fil5 {fill:#FEFEFE}
    .fil2 {fill:#B2B3B3}
    .fil1 {fill:#2B2A29}
    .fil4 {fill:#76B65C;fill-rule:nonzero}
    .fil3 {fill:url(#id0)}
   ]]>
  </style>
  <linearGradient id="id0" gradientUnits="userSpaceOnUse" x1="271.834" y1="18.3674" x2="271.834" y2="320.197">
   <stop offset="0" style="stop-opacity:1; stop-color:#00A0E3"/>
   <stop offset="1" style="stop-opacity:1; stop-color:#08618B"/>
  </linearGradient>
 </defs>
 <g id="Ebene_x0020_1">
  <metadata id="CorelCorpID_0Corel-Layer"/>
  <rect class="fil0 str0" x="1" y="1" width="542" height="337"/>
  <path class="fil1" d="M282 192l7 0c3,0 6,-2 6,-6l0 0c0,-4 -3,-5 -6,-5l-7 0 0 11z"/>
  <polygon class="fil1" points="235,195 242,195 239,186 "/>
  <path class="fil1" d="M224 144l5 0c2,0 3,0 3,-3l0 0c0,-2 -1,-2 -3,-2l-5 0 0 5z"/>
  <path class="fil1" d="M314 216l0 -46c0,-1 0,-2 1,-2l10 0c1,0 2,1 2,2l0 46c0,1 -1,2 -2,2l-10 0c-1,0 -1,-1 -1,-2z"/>
  <path class="fil1" d="M282 204l0 12c0,1 0,2 -1,2l-10 0c-1,0 -2,-1 -2,-2l0 -46c0,-1 1,-2 2,-2l18 0c11,0 20,6 20,18l0 0c0,12 -9,18 -21,18l-6 0z"/>
  <path class="fil1" d="M247 207l-17 0 -4 10c0,0 -1,1 -1,1l-11 0c0,0 -1,0 -1,-1 0,0 0,-1 0,-2l20 -46c0,-1 0,-1 1,-1l10 0c0,0 1,0 1,1l20 46c0,1 0,2 0,2 -1,1 -1,1 -2,1l-10 0c-1,0 -2,-1 -2,-1l-4 -10z"/>
  <path class="fil1" d="M311 139l-8 0c-1,0 -2,-1 -2,-2l0 -6c0,-1 1,-2 2,-2l26 0c1,0 1,1 1,2l0 6c0,1 0,2 -1,2l-8 0 0 23c0,1 -1,2 -2,2l-7 0c-1,0 -1,-1 -1,-2l0 -23z"/>
  <path class="fil1" d="M288 164c-5,0 -10,-2 -14,-5 -1,-1 -1,-2 0,-3l4 -5c0,0 1,0 2,0 3,2 5,4 8,4 1,0 3,-1 3,-2l0 0c0,-1 -4,-2 -5,-2 -6,-2 -11,-4 -11,-11l0 0c0,-7 5,-11 12,-11 5,0 9,1 13,4 0,0 1,1 0,2l-3 5c-1,1 -1,1 -2,1 0,0 0,0 -1,0 -2,-2 -4,-3 -7,-3 -1,0 -2,0 -2,1l0 0c0,0 0,0 0,1 0,0 4,1 5,2 6,1 11,4 11,11l0 0c0,7 -6,11 -13,11z"/>
  <path class="fil1" d="M256 138l0 3 13 0c1,0 1,1 1,2l0 6c0,1 0,2 -1,2l-13 0 0 3 15 0c1,0 2,1 2,2l0 6c0,1 -1,2 -2,2l-24 0c-1,0 -1,-1 -1,-2l0 -31c0,-1 0,-2 1,-2l24 0c1,0 1,1 1,2l0 6c0,1 0,1 -1,1l-15 0z"/>
  <path class="fil1" d="M237 151l6 10c1,0 1,1 0,2 0,0 0,1 -1,1l-8 0c-1,0 -1,-1 -1,-1l-7 -9 -2 0 0 8c0,1 -1,2 -2,2l-7 0c-1,0 -2,-1 -2,-2l0 -31c0,-1 1,-2 2,-2l14 0c4,0 8,1 11,4 2,2 3,5 3,8l0 0c0,5 -2,8 -6,10z"/>
  <path class="fil1" d="M194 194l1 3c0,0 0,1 1,1l0 2c0,1 1,1 1,2 0,1 1,2 1,3l6 12c1,0 1,0 1,0 0,1 0,1 0,1l2 3c0,0 0,0 0,0 1,2 3,4 5,6 0,0 0,0 0,0l1 1c1,1 2,2 4,4 0,0 1,0 1,1 0,0 0,0 1,0l1 1c3,3 8,7 12,9 1,0 1,1 2,1l3 2c0,0 0,0 0,0 1,0 1,0 1,0 0,0 1,0 1,0 0,0 0,0 0,0l7 3c1,0 1,0 1,0 1,1 1,1 1,1 0,0 1,0 1,0 2,1 5,1 7,2 1,0 1,0 2,0 1,0 3,1 4,1 2,0 4,0 5,0 2,0 3,0 5,0 2,0 4,0 7,0 1,0 2,0 2,0 1,0 2,-1 2,-1 1,0 2,0 2,0 1,0 2,0 3,0 1,0 3,-1 4,-2 2,0 4,0 5,-1 1,0 1,0 1,0 1,0 1,-1 1,-1 0,0 1,0 1,0 0,0 1,0 1,0l2 -1c2,-1 4,-2 6,-3 1,-1 1,-1 2,-1 0,0 0,0 1,-1l4 -2c1,-1 4,-3 5,-4l4 -3c0,0 0,0 0,-1l8 -8c3,-3 5,-7 7,-9l3 -6c1,-2 2,-4 3,-6 1,-3 2,-6 3,-9 0,-1 0,-1 0,-1l1 -4c0,-2 0,-4 1,-6 0,-2 0,-3 0,-5 0,-3 0,-6 0,-10 0,-2 -1,-5 -1,-7l-1 -4c0,-1 0,-1 0,-2l-1 -4c0,0 0,0 0,0 0,-1 -1,-1 -1,-2 0,0 0,0 0,0 0,0 0,0 0,-1 0,0 0,0 0,0l-1 -2c-1,-2 -2,-5 -3,-7 0,-1 0,-1 0,-1 -1,-2 -2,-4 -3,-6l-5 -7 -4 -4c0,-1 -1,-1 -1,-1 -2,-2 -4,-4 -5,-6l-5 -4c0,0 0,0 0,0 -1,0 -1,-1 -2,-1 0,-1 -1,-1 -2,-1 -2,-2 -4,-3 -7,-5 0,0 0,0 0,0l-3 -1c-3,-2 -6,-3 -9,-4 -1,0 -3,-1 -5,-2 -1,0 -2,0 -2,0 -1,0 -2,0 -2,-1l-7 -1c-3,0 -8,0 -11,0 -3,0 -7,0 -11,1l-6 1c-1,0 -3,1 -4,1 -2,0 -4,1 -5,2l-4 1c0,0 0,0 -1,1 -1,0 -2,1 -3,1 0,0 -1,0 -1,0l-8 5c-1,1 -2,2 -3,2 0,0 0,1 0,1l-2 1c0,0 0,0 0,0l-3 3c0,0 0,0 -1,0 -1,1 -3,3 -4,4l-2 3c-2,2 -4,4 -5,6 0,0 0,0 -1,1 0,0 0,0 0,0 0,0 0,1 -1,1 0,1 -2,3 -2,4l-4 8c0,0 0,0 -1,1l0 1c-1,2 -2,6 -3,7 0,0 0,0 0,0l-1 4c0,1 0,2 0,2 -1,1 -1,2 -1,2 0,2 0,3 -1,5 0,1 0,3 0,4 0,1 0,3 0,4 0,3 -1,6 0,8 0,2 0,3 0,5l1 6c1,2 1,3 1,4z"/>
  <path class="fil1" d="M146 178c0,-3 0,-6 0,-9l1 -5c-2,0 -3,-2 -5,-2l-5 -3c0,-1 -1,-1 -1,-1 -1,-1 -1,-1 -2,-1l-12 -7c-1,-1 -1,-1 -2,-2 0,0 0,0 0,-1 0,-1 0,-3 1,-4l2 -10c0,0 0,0 0,0 0,-1 0,-2 1,-2l3 -12c0,0 0,0 0,0 0,-1 0,-2 1,-3 0,-1 1,-1 2,-1 7,0 13,0 20,0 3,0 6,-1 9,-1 1,0 2,0 2,0 0,0 0,0 0,0 1,-1 2,-2 2,-3 1,-2 2,-3 3,-5 0,0 0,0 0,0l1 -2c1,0 1,0 1,0 0,0 0,-1 0,-1 0,0 0,0 0,0l-13 -24c0,0 0,0 0,0 0,0 -1,-1 -1,-1 -1,-2 -2,-3 0,-5l4 -4c0,0 0,0 0,0l4 -3c4,-5 8,-9 12,-13 1,-1 1,-1 2,-1 2,0 5,2 6,2l6 3c2,2 5,3 8,5l0 0c0,0 0,0 0,0 1,0 2,1 2,1 0,0 1,0 1,1l5 2c0,0 0,0 0,0 1,1 1,1 2,1 0,0 1,-1 2,-1 0,0 1,-1 1,-1 1,0 1,0 1,-1 0,0 1,0 1,0 0,0 1,-1 2,-1 0,0 1,0 1,-1 0,0 2,0 2,-1l0 -6c0,-2 0,-4 1,-5 0,-2 0,-3 0,-5 0,-5 0,-9 0,-14 1,-2 2,-2 3,-3 0,0 0,0 0,0l8 -2c0,0 1,0 2,0l7 -2c1,-1 3,-1 4,-1 0,0 0,0 0,0l8 -2c1,-1 1,0 2,0l1 2c1,2 2,3 3,5 2,2 3,5 5,7l1 2c0,0 0,1 1,1l6 10c0,0 0,0 0,0 0,0 0,0 0,0 2,1 5,0 6,0 2,0 4,1 6,1 1,-1 2,-3 3,-4 1,-2 1,-4 2,-5l3 -5c0,0 0,0 0,0 1,0 1,-1 1,-1l5 -8c0,-1 1,-2 1,-2 0,-1 1,-2 2,-2 1,-1 2,-1 3,0 1,0 1,0 2,0 1,0 1,0 2,1 1,0 3,0 4,1l12 3c0,0 0,0 0,0 1,0 3,0 4,1 2,0 3,0 4,1 1,0 1,0 1,0 1,1 1,3 1,4 0,1 0,3 0,4 0,2 0,5 0,7 0,5 0,11 0,16 0,1 0,2 0,3 1,0 1,1 1,1l5 2c0,1 1,1 2,2 1,0 2,1 3,2 2,-1 4,-2 6,-3 0,-1 0,-1 1,-1l19 -11c1,0 1,0 2,-1 1,0 2,1 2,1 1,2 4,4 5,5 2,2 3,3 5,5l1 1c0,0 0,0 0,0 0,0 0,0 0,0l2 2c1,1 1,1 2,2l7 7c0,0 0,1 0,1 -1,3 -3,6 -4,8 0,0 0,0 0,1 -1,0 -1,0 -1,1l-10 19c0,0 0,0 0,0 0,0 0,1 0,1 0,0 0,0 0,0l5 9c0,0 0,0 0,0 0,0 0,0 0,0 5,1 10,1 14,1 2,0 4,0 6,0 4,0 8,0 12,1 0,0 1,0 1,1 1,1 1,3 1,4l3 9c0,1 0,2 0,2 0,1 1,1 1,2 0,1 1,3 1,4 0,0 0,0 0,0l2 9c1,1 0,2 0,2l-27 18c0,0 0,0 0,0 0,1 0,2 0,2 0,1 0,3 0,4 0,1 -1,5 -1,6 1,0 1,0 1,0l5 3c0,0 0,1 1,1l6 4c4,2 8,4 11,6 2,1 4,2 3,4 0,2 -1,3 -1,5 0,3 -2,6 -2,9 -1,1 -1,3 -1,4 0,1 0,1 -1,2 0,0 0,0 0,0l-1 4c0,0 0,0 0,0 0,0 0,1 0,1 0,0 0,1 0,1 0,1 -1,1 -1,1 0,1 0,2 -1,3 -1,1 -2,1 -3,1 -2,0 -4,0 -5,0 -4,0 -8,1 -11,1 -4,0 -8,0 -11,0 -1,0 -3,0 -3,0 0,0 0,0 0,0l-3 6c-1,1 -2,2 -2,3 -1,1 -2,2 -2,2 1,1 2,3 2,4l5 8c1,1 1,2 1,2 2,3 3,6 5,9l1 2c2,3 2,3 -1,6l-20 20c0,0 0,1 -1,1 -2,0 -3,-2 -4,-2 -2,-1 -3,-2 -5,-3 0,0 0,0 0,0l-19 -10c0,0 0,0 -1,0l-3 2c-2,1 -4,2 -5,2 -1,1 -2,1 -3,2l0 7c0,2 0,4 0,6 -1,1 -1,3 -1,5 0,4 0,7 0,11 0,2 -1,3 -3,3 0,0 -1,0 -1,0 0,0 -1,0 -1,1 0,0 -1,0 -1,0 0,0 -1,0 -1,0 -1,0 -1,0 -1,0 -1,1 -1,1 -2,1 0,0 0,0 0,0 -1,0 -1,0 -1,0l-3 1c0,0 0,0 0,0 -2,0 -3,1 -5,1 0,0 -1,1 -2,1 -1,0 -3,1 -4,1 -2,1 -3,1 -5,1 -1,0 -1,1 -2,1 -1,0 -1,-1 -1,-1l-3 -3c0,-1 0,-2 -1,-2 0,0 0,0 0,0l-2 -3c0,-1 -1,-2 -1,-2 0,-1 -1,-1 -1,-1l-1 -3c-1,0 -1,0 -1,0 -1,-2 -2,-3 -3,-5 0,0 0,-1 -1,-1 -1,-1 -1,-3 -2,-4 0,0 -1,-1 -1,-1 0,-1 -1,-1 -1,-1 0,0 0,0 0,0 -1,-1 -5,0 -6,0 -2,0 -5,-1 -6,-1 -1,2 -3,5 -4,6 0,0 0,0 0,0l-5 9c0,0 -1,0 -1,0 0,1 0,1 0,2 -2,3 -4,5 -5,8 -2,3 -2,2 -5,2 -1,-1 -3,-1 -4,-2 -1,0 -1,0 -2,0l-10 -3c-2,0 -4,-1 -6,-1l-6 -2c-1,0 -1,0 -1,-1 -1,-1 -1,-5 -1,-6 0,-2 0,-4 0,-6 0,-6 0,-12 0,-18 0,0 0,-1 0,-2 0,0 -1,0 -1,-1l-6 -3c-1,-1 -4,-2 -5,-3 -1,1 -4,2 -5,3 -2,1 -4,2 -6,3 -2,1 -5,3 -8,4 -1,1 -7,5 -9,5 -1,-1 -1,-1 -2,-2 -1,-1 -2,-2 -3,-3 -2,-2 -4,-4 -5,-5 -2,-2 -3,-3 -4,-4 -2,-2 -3,-3 -4,-4 -2,-1 -4,-3 -5,-5 0,0 0,-1 0,-1 1,-2 2,-3 2,-5l5 -9c1,-1 1,-2 2,-2 1,-2 2,-4 3,-6l2 -4c0,0 1,-2 1,-2 -1,-2 -2,-5 -3,-6 0,-1 0,-1 0,-1l-2 -4c-1,0 -1,0 -1,0 0,0 0,0 0,0 0,0 0,0 0,0 0,-1 0,-1 0,-1 -2,-1 -5,0 -7,0 -3,-1 -5,-1 -8,-1 -2,0 -14,1 -16,0 0,0 0,0 0,0 -1,-1 -1,-2 -1,-3 0,-1 0,-1 0,-1 -1,-1 -1,-1 -1,-2 0,0 0,-1 0,-1 0,0 0,-1 0,-1 -1,-2 -1,-3 -2,-5 0,0 0,-1 0,-1 0,-1 0,-1 0,-1 -1,-1 -1,-1 -1,-2 0,-1 -1,-4 -1,-6 0,0 -1,0 -1,-1 0,0 0,-1 0,-1 0,-1 0,-1 -1,-1 0,-1 0,-1 0,-1 0,-1 0,-2 0,-3 -1,-2 -1,-3 1,-4 4,-2 8,-5 12,-7 1,0 1,-1 1,-1 3,-1 5,-3 8,-4 1,-1 3,-2 4,-3z"/>
  <path class="fil2" d="M146 174c0,-3 0,-6 0,-9l1 -5c-2,0 -3,-2 -5,-2l-5 -3c0,-1 -1,-1 -1,-1 -1,-1 -1,-1 -2,-1l-12 -7c-1,-1 -1,-1 -2,-2 0,0 0,0 0,-1 0,-1 0,-3 1,-4l2 -10c0,0 0,0 0,0 0,-1 0,-1 1,-2l3 -12c0,0 0,0 0,0 0,-1 0,-2 1,-3 0,-1 1,-1 2,-1 7,0 13,0 20,0 3,0 6,-1 9,-1 1,0 2,1 2,0 0,0 0,0 0,0 1,-1 2,-2 2,-3 1,-2 2,-3 3,-5 0,0 0,0 0,0l1 -2c1,0 1,0 1,0 0,0 0,0 0,-1 0,0 0,0 0,0l-13 -23c0,0 0,0 0,-1 0,0 -1,0 -1,-1 -1,-2 -2,-3 0,-5l4 -3c0,-1 0,-1 0,-1l4 -3c4,-5 8,-9 12,-13 1,-1 1,-1 2,-1 2,0 5,2 6,2l6 3c2,2 5,4 8,5l0 0c0,0 0,0 0,0 1,1 2,1 2,1 0,0 1,0 1,1l5 3c0,0 0,0 0,0 1,0 1,0 2,0 0,0 1,-1 2,-1 0,0 1,-1 1,-1 1,0 1,0 1,0 0,-1 1,-1 1,-1 0,0 1,0 2,-1 0,0 1,0 1,0 0,-1 2,-1 2,-1l0 -7c0,-2 0,-3 1,-5 0,-2 0,-3 0,-5 0,-4 0,-9 0,-14 1,-1 2,-2 3,-2 0,0 0,0 0,0l8 -2c0,-1 1,-1 2,-1l7 -2c1,-1 3,-1 4,-1 0,0 0,0 0,0l8 -2c1,0 1,0 2,0l1 2c1,2 2,4 3,5 2,2 3,5 5,7l1 2c0,0 0,1 1,1l6 10c0,0 0,0 0,0 0,0 0,0 0,1 2,0 5,0 6,0 2,0 4,0 6,0 1,-1 2,-3 3,-4 1,-2 1,-3 2,-5l3 -5c0,0 0,0 0,0 1,0 1,-1 1,-1l5 -8c0,-1 1,-1 1,-2 0,-1 1,-2 2,-2 1,-1 2,-1 3,0 1,0 1,0 2,0 1,0 1,1 2,1 1,0 3,0 4,1l12 3c0,0 0,0 0,0 1,1 3,1 4,1 2,1 3,1 4,1 1,0 1,0 1,1 1,0 1,2 1,3 0,1 0,3 0,4 0,2 0,5 0,7 0,5 0,11 0,16 0,1 0,3 0,3 1,1 1,1 1,1l5 2c0,1 1,1 2,2 1,0 2,1 3,2 2,-1 4,-2 6,-3 0,0 0,-1 1,-1l19 -10c1,-1 1,-1 2,-1 1,-1 2,0 2,0 1,2 4,4 5,5 2,2 3,4 5,5l1 1c0,0 0,0 0,0 0,0 0,0 0,0l2 3c1,0 1,1 2,1l7 7c0,0 0,1 0,2 -1,2 -3,5 -4,7 0,0 0,1 0,1 -1,0 -1,1 -1,1l-10 19c0,0 0,0 0,0 0,0 0,1 0,1 0,0 0,0 0,0l5 9c0,0 0,0 0,0 0,0 0,0 0,1 5,0 10,0 14,0 2,0 4,0 6,0 4,0 8,1 12,1 0,0 1,0 1,1 1,1 1,3 1,4l3 9c0,1 0,2 0,2 0,1 1,2 1,2 0,1 1,3 1,4 0,0 0,0 0,0l2 9c1,1 0,2 0,2l-27 18c0,0 0,0 0,0 0,1 0,2 0,2 0,1 0,3 0,4 0,1 -1,5 -1,6 1,0 1,0 1,1l5 2c0,0 0,1 1,1l6 4c4,2 8,4 11,6 2,1 4,2 3,5 0,1 -1,3 -1,4 0,3 -2,6 -2,9 -1,1 -1,3 -1,4 0,1 0,1 -1,2 0,0 0,0 0,1l-1 3c0,0 0,0 0,0 0,0 0,1 0,1 0,1 0,1 0,1 0,1 -1,1 -1,1 0,1 0,2 -1,3 -1,1 -2,1 -3,1 -2,0 -4,0 -5,0 -4,1 -8,1 -11,1 -4,0 -8,0 -11,0 -1,0 -3,0 -3,0 0,0 0,0 0,0l-3 6c-1,1 -2,2 -2,3 -1,1 -2,2 -2,2 1,2 2,3 2,4l5 9c1,0 1,1 1,2 2,3 3,5 5,8l1 2c2,3 2,3 -1,6l-20 20c0,0 0,1 -1,1 -2,0 -3,-1 -4,-2 -2,-1 -3,-2 -5,-3 0,0 0,0 0,0l-19 -10c0,0 0,0 -1,0l-3 2c-2,1 -4,2 -5,2 -1,1 -2,1 -3,2l0 7c0,2 0,4 0,6 -1,2 -1,3 -1,5 0,4 0,7 0,11 0,2 -1,3 -3,3 0,0 -1,0 -1,0 0,0 -1,1 -1,1 0,0 -1,0 -1,0 0,0 -1,0 -1,0 -1,0 -1,0 -1,0 -1,1 -1,1 -2,1 0,0 0,0 0,0 -1,0 -1,0 -1,0l-3 1c0,0 0,0 0,0 -2,0 -3,1 -5,1 0,0 -1,1 -2,1 -1,0 -3,1 -4,1 -2,1 -3,1 -5,1 -1,1 -1,1 -2,1 -1,0 -1,0 -1,-1l-3 -3c0,-1 0,-1 -1,-2 0,0 0,0 0,0l-2 -3c0,-1 -1,-2 -1,-2 0,0 -1,-1 -1,-1l-1 -2c-1,-1 -1,-1 -1,-1 -1,-2 -2,-3 -3,-5 0,0 0,-1 -1,-1 -1,-1 -1,-2 -2,-4 0,0 -1,-1 -1,-1 0,-1 -1,-1 -1,-1 0,0 0,0 0,0 -1,0 -5,0 -6,0 -2,0 -5,-1 -6,-1 -1,2 -3,5 -4,6 0,0 0,0 0,0l-5 9c0,0 -1,0 -1,0 0,1 0,1 0,2 -2,3 -4,5 -5,8 -2,3 -2,2 -5,2 -1,-1 -3,-1 -4,-1 -1,-1 -1,-1 -2,-1l-10 -2c-2,-1 -4,-2 -6,-2l-6 -2c-1,0 -1,0 -1,-1 -1,-1 -1,-5 -1,-6 0,-2 0,-4 0,-6 0,-6 0,-12 0,-18 0,0 0,-1 0,-2 0,0 -1,0 -1,0l-6 -4c-1,-1 -4,-2 -5,-3 -1,1 -4,2 -5,3 -2,1 -4,2 -6,3 -2,2 -5,3 -8,5 -1,1 -7,4 -9,4 -1,-1 -1,-1 -2,-2 -1,-1 -2,-2 -3,-3 -2,-2 -4,-4 -5,-5 -2,-1 -3,-3 -4,-4 -2,-2 -3,-3 -4,-4 -2,-1 -4,-3 -5,-5 0,0 0,-1 0,-1 1,-2 2,-3 2,-4l5 -10c1,-1 1,-1 2,-2 1,-2 2,-4 3,-6l2 -3c0,-1 1,-3 1,-3 -1,-2 -2,-4 -3,-6 0,0 0,0 0,-1l-2 -4c-1,0 -1,0 -1,0 0,0 0,0 0,0 0,0 0,0 0,0 0,0 0,-1 0,-1 -2,-1 -5,0 -7,0 -3,-1 -5,-1 -8,-1 -2,0 -14,1 -16,0 0,0 0,0 0,0 -1,-1 -1,-2 -1,-3 0,-1 0,-1 0,-1 -1,-1 -1,-1 -1,-2 0,0 0,0 0,-1 0,0 0,-1 0,-1 -1,-1 -1,-3 -2,-5 0,0 0,-1 0,-1 0,-1 0,-1 0,-1 -1,-1 -1,-1 -1,-1 0,-2 -1,-5 -1,-7 0,0 -1,0 -1,-1 0,0 0,-1 0,-1 0,0 0,-1 -1,-1 0,-1 0,-1 0,-1 0,-1 0,-2 0,-3 -1,-2 -1,-2 1,-4 4,-2 8,-5 12,-7 1,0 1,-1 1,-1 3,-1 5,-3 8,-4 1,-1 3,-2 4,-3zm48 16l1 3c0,1 0,1 1,1l0 2c0,1 1,1 1,2 0,1 1,2 1,3l6 12c1,0 1,0 1,1 0,0 0,0 0,0l2 3c0,0 0,0 0,0 1,2 3,4 5,6 0,0 0,0 0,0l1 1c1,1 2,3 4,4 0,0 1,0 1,1 0,0 0,0 1,0l1 1c3,4 8,7 12,9 1,1 1,1 2,1l3 2c0,0 0,0 0,0 1,0 1,0 1,0 0,0 1,0 1,0 0,0 0,0 0,1l7 2c1,0 1,0 1,1 1,0 1,0 1,0 0,0 1,0 1,0 2,1 5,1 7,2 1,0 1,0 2,0 1,0 3,1 4,1 2,0 4,0 5,0 2,0 3,0 5,0 2,0 4,0 7,0 1,0 2,0 2,0 1,0 2,0 2,-1 1,0 2,0 2,0 1,0 2,0 3,0 1,0 3,-1 4,-1 2,-1 4,-1 5,-2 1,0 1,0 1,0 1,0 1,0 1,-1 0,0 1,0 1,0 0,0 1,0 1,0l2 -1c2,-1 4,-2 6,-3 1,0 1,-1 2,-1 0,0 0,0 1,-1l4 -2c1,-1 4,-3 5,-4l4 -3c0,0 0,0 0,-1l8 -8c3,-2 5,-7 7,-9l3 -6c1,-2 2,-4 3,-6 1,-3 2,-6 3,-9 0,0 0,0 0,0l1 -4c0,-3 0,-5 1,-7 0,-1 0,-3 0,-5 0,-3 0,-6 0,-10 0,-2 -1,-4 -1,-7l-1 -4c0,0 0,-1 0,-2l-1 -4c0,0 0,0 0,0 0,0 -1,-1 -1,-2 0,0 0,0 0,0 0,0 0,0 0,0 0,0 0,-1 0,-1l-1 -2c-1,-2 -2,-5 -3,-7 0,0 0,-1 0,-1 -1,-2 -2,-4 -3,-5l-5 -8 -4 -4c0,0 -1,-1 -1,-1 -2,-2 -4,-4 -5,-6l-5 -4c0,0 0,0 0,0 -1,0 -1,0 -2,-1 0,0 -1,-1 -2,-1 -2,-2 -4,-3 -7,-4 0,-1 0,-1 0,-1l-3 -1c-3,-1 -6,-3 -9,-4 -1,0 -3,-1 -5,-1 -1,-1 -2,-1 -2,-1 -1,0 -2,0 -2,0l-7 -2c-3,0 -8,0 -11,0 -3,0 -7,0 -11,1l-6 1c-1,0 -3,1 -4,1 -2,1 -4,1 -5,2l-4 1c0,1 0,1 -1,1 -1,0 -2,1 -3,1 0,0 -1,0 -1,1l-8 4c-1,1 -2,2 -3,3 0,0 0,0 0,0l-2 1c0,0 0,0 0,0l-3 3c0,0 0,0 -1,0 -1,1 -3,3 -4,4l-2 3c-2,2 -4,4 -5,6 0,0 0,0 -1,1 0,0 0,0 0,0 0,0 0,1 -1,1 0,1 -2,3 -2,4l-4 8c0,0 0,0 -1,1l0 1c-1,2 -2,6 -3,7 0,0 0,0 0,1l-1 3c0,1 0,2 0,2 -1,1 -1,2 -1,2 0,2 0,3 -1,5 0,1 0,3 0,4 0,1 0,3 0,4 0,3 -1,6 0,8 0,2 0,4 0,5l1 6c1,2 1,3 1,4zm43 -42l6 9c1,1 1,1 0,2 0,0 0,1 -1,1l-8 0c-1,0 -1,-1 -1,-1l-7 -9 -2 0 0 8c0,1 -1,2 -2,2l-7 0c-1,0 -2,-1 -2,-2l0 -31c0,-1 1,-2 2,-2l14 0c4,0 8,1 11,4 2,2 3,5 3,8l0 0c0,5 -2,8 -6,11zm19 -13l0 3 13 0c1,0 1,0 1,1l0 6c0,1 0,2 -1,2l-13 0 0 3 15 0c1,0 2,1 2,2l0 6c0,1 -1,2 -2,2l-24 0c-1,0 -1,-1 -1,-2l0 -31c0,-1 0,-2 1,-2l24 0c1,0 1,1 1,2l0 6c0,1 0,2 -1,2l-15 0zm32 25c-5,0 -10,-2 -14,-5 -1,-1 -1,-2 0,-3l4 -4c0,-1 1,-1 2,-1 3,2 5,4 8,4 1,0 3,0 3,-2l0 0c0,-1 -4,-2 -5,-2 -6,-2 -11,-4 -11,-11l0 0c0,-7 5,-11 12,-11 5,0 9,1 13,4 0,1 1,2 0,2l-3 5c-1,1 -1,1 -2,1 0,0 0,0 -1,0 -2,-2 -4,-3 -7,-3 -1,0 -2,0 -2,1l0 0c0,0 0,1 0,1 0,0 4,2 5,2 6,1 11,4 11,11l0 0c0,7 -6,11 -13,11zm23 -25l-8 0c-1,0 -2,-1 -2,-2l0 -6c0,-1 1,-2 2,-2l26 0c1,0 1,1 1,2l0 6c0,1 0,2 -1,2l-8 0 0 23c0,1 -1,2 -2,2l-7 0c-1,0 -1,-1 -1,-2l0 -23zm-64 69l-17 0 -4 9c0,0 -1,1 -1,1l-11 0c0,0 -1,0 -1,-1 0,0 0,-1 0,-1l20 -47c0,-1 0,-1 1,-1l10 0c0,0 1,0 1,1l20 47c0,0 0,1 0,1 -1,1 -1,1 -2,1l-10 0c-1,0 -2,-1 -2,-1l-4 -9zm35 -4l0 12c0,1 0,2 -1,2l-10 0c-1,0 -2,-1 -2,-2l0 -46c0,-1 1,-2 2,-2l18 0c11,0 20,7 20,18l0 0c0,12 -9,18 -21,18l-6 0zm32 12l0 -46c0,-1 0,-2 1,-2l10 0c1,0 2,1 2,2l0 46c0,1 -1,2 -2,2l-10 0c-1,0 -1,-1 -1,-2zm-90 -72l5 0c2,0 3,0 3,-2l0 -1c0,-2 -1,-2 -3,-2l-5 0 0 5zm11 51l7 0 -3 -9 -4 9zm47 -3l7 0c3,0 6,-2 6,-6l0 0c0,-4 -3,-5 -6,-5l-7 0 0 11z"/>
  <path class="fil3" d="M190 167c0,-1 0,-3 0,-4 1,-2 0,-3 1,-5 0,-1 0,-3 1,-4 0,-1 0,-1 0,-2 0,-1 0,-1 0,-2l2 -4c0,-1 2,-6 2,-7l1 -2c0,0 0,-1 0,-1l4 -7c1,-2 2,-3 3,-5 0,0 0,0 1,-1 0,0 0,0 0,0 0,-1 0,-1 1,-1 1,-2 3,-4 5,-6l2 -3c1,-1 3,-3 4,-4 1,0 0,0 1,0l3 -3c0,0 0,-1 1,-1l1 -1c1,-1 2,-1 4,-2l7 -5c1,0 1,0 1,0 1,-1 2,-1 4,-2 0,0 0,0 1,0l3 -2c1,0 4,-1 6,-1 1,-1 2,-1 3,-2l7 -1c2,0 9,-1 11,-1 3,0 9,0 11,1l7 1c1,0 1,0 2,0 1,0 1,1 2,1 2,0 4,1 6,2 2,0 6,2 9,3l2 2c1,0 1,0 1,0 3,1 5,3 7,4 1,1 2,1 2,2 1,0 1,0 2,1l5 4c2,2 4,3 5,6 1,0 1,0 2,1l3 4 5 8c1,1 2,3 3,5 0,1 1,1 1,1 0,1 2,6 3,7l1 3c0,0 0,0 0,1 0,1 0,1 1,2l1 4c0,0 0,1 0,2l1 4c0,2 1,5 1,7 0,5 0,5 0,11 0,1 0,3 -1,4 0,3 0,5 -1,7l-1 4c0,3 -2,7 -3,10 -1,2 -2,4 -3,6l-3 5c-1,3 -4,8 -6,10l-8 9c-1,0 -1,0 -1,0l-4 3c-1,1 -4,3 -5,4l-4 3c-1,0 -1,0 -1,0 -1,1 -1,1 -2,1 -2,1 -5,3 -7,4l-1 0c-1,0 -1,1 -1,1 -1,0 -1,0 -1,0 -1,0 -1,0 -1,0 -1,0 -1,0 -1,1 -1,0 -9,2 -10,2 -1,0 -1,1 -2,1 -1,0 -2,0 -2,0 -1,0 -2,0 -3,1 0,0 -1,0 -2,0 -3,0 -4,0 -7,0 -2,0 -3,0 -5,0 -2,0 -3,0 -5,0 -1,0 -2,-1 -4,-1 -1,0 -1,0 -2,-1 -3,0 -5,0 -7,-1 -1,0 -1,0 -1,0 -1,-1 -1,-1 -1,-1 -1,0 -1,0 -1,0l-8 -3c0,0 0,0 0,0 -1,-1 -1,-1 -1,-1l-4 -1c0,-1 -1,-1 -1,-1 -5,-3 -10,-6 -13,-9l-1 -1c-1,-1 -1,-1 -1,-1 -1,0 -1,-1 -1,-1 -2,-1 -3,-3 -4,-4l-1 -1c0,0 0,0 0,0 -2,-1 -4,-5 -5,-6l-2 -3c0,0 0,0 -1,-1 0,0 0,0 0,0l-6 -12c-1,-1 -1,-3 -2,-4 0,0 0,-1 0,-1l-1 -2c0,-1 0,-1 0,-1l-1 -3c0,-1 -1,-3 -1,-4l-1 -7c-1,-1 -1,-3 -1,-4 0,-3 0,-6 0,-9zm-69 -24c1,1 1,1 2,1l12 7c0,1 1,1 2,1 0,1 1,1 1,1l5 3c1,1 5,3 5,3l0 6c0,3 0,6 0,9 0,1 0,1 0,1 -2,1 -4,2 -5,3 -3,1 -5,3 -8,5 0,0 0,0 -1,0 -4,3 -8,5 -12,8 -1,0 -1,0 -1,2 1,1 1,1 1,2 0,1 0,1 0,1 0,1 0,1 1,2 0,0 0,0 0,1 0,0 0,0 0,1 1,1 1,5 2,6 0,1 0,1 0,1 0,1 0,1 1,1 0,1 0,1 0,2 0,1 1,3 1,4 0,1 0,1 0,2 1,0 1,0 1,1 0,0 0,1 0,1 0,1 0,1 1,1 0,1 0,2 0,3 1,0 14,0 15,0 3,0 6,0 8,0 2,0 5,0 8,0 0,0 0,2 1,2 0,0 0,0 0,1l2 4c1,2 2,4 3,6 1,1 0,2 -1,4l-2 4c-1,2 -2,4 -3,6 0,0 -1,1 -1,2l-5 9c-1,2 -2,3 -2,4 1,2 6,7 8,9 2,2 7,7 9,8 1,1 2,3 3,4 1,0 1,1 2,1 0,0 6,-3 8,-4 2,-1 5,-3 7,-4 2,-1 11,-7 12,-7 1,0 5,3 6,4l6 3c2,1 1,1 2,4 0,6 0,12 0,18 0,2 0,10 0,12l6 1c2,1 5,2 6,2l10 2c1,1 2,1 2,1 2,0 3,1 4,1 3,0 2,1 3,-1 2,-3 4,-5 5,-8 0,0 1,-1 1,-1l6 -10c0,-1 3,-6 4,-6 0,0 5,0 7,0 1,0 6,0 7,0 1,1 0,0 1,1 0,0 0,0 0,1 1,0 1,1 1,2 1,1 2,2 3,3 0,0 0,1 1,2 1,1 1,2 2,4 1,0 1,0 1,1l2 2c0,1 0,1 0,1 0,1 1,1 1,2l3 3c0,1 0,1 1,2l2 3c1,0 1,0 2,0 2,-1 8,-2 9,-3 1,0 1,0 2,0 2,-1 3,-1 5,-2l3 0c0,-1 1,-1 1,-1 1,0 1,0 1,0 1,0 1,0 1,0 1,0 1,-1 1,-1 1,0 1,0 2,0 0,0 0,0 1,0 0,0 0,0 1,-1 1,0 1,0 1,-1 0,-4 0,-7 1,-11 0,-2 0,-4 0,-5 0,-2 0,-4 0,-6l1 -8c0,-1 2,-2 3,-2 2,-1 3,-2 5,-3l4 -2c1,0 2,0 2,1l19 10c1,0 3,2 4,2 1,1 3,2 4,2l20 -21c2,-1 2,-1 1,-3l-1 -2c-2,-2 -4,-6 -5,-9 -1,0 -1,-1 -1,-2l-5 -8c-1,-2 -2,-3 -2,-4 -1,-1 1,-3 1,-4 1,-1 2,-2 2,-3l3 -5c1,-2 3,-2 5,-2 3,0 7,0 11,0 3,0 7,0 11,0 1,0 3,0 5,0 3,-1 2,-1 3,-3 0,-1 0,-1 0,-1 0,0 0,-1 0,-1 0,-1 1,-1 1,-1l0 -4c1,0 1,0 1,-1 0,0 0,-1 0,-1 0,-2 1,-3 1,-4 1,-3 2,-7 2,-9 1,-2 1,-3 2,-5 0,-1 -1,-1 -3,-2 -3,-3 -7,-5 -10,-7l-7 -4c-1,0 -1,0 -1,0l-5 -3c-2,-2 -2,0 -1,-8 0,-1 0,-8 0,-8l1 0 27 -17 -3 -10c0,-1 -1,-2 -1,-3 0,-1 0,-2 0,-2 0,-1 -1,-1 -1,-2l-2 -10c-1,-1 -1,-2 -2,-3 -2,-1 -8,-1 -11,-1 -2,0 -4,0 -6,0 -4,-1 -9,0 -14,-1 -1,0 -1,-1 -2,-1l-4 -9c-1,-2 -1,-1 -1,-3l11 -19c0,0 0,-1 0,-1 0,0 0,-1 1,-1 0,-1 3,-6 3,-7l-6 -7c-1,0 -1,-1 -2,-1l-2 -2c0,0 0,-1 0,-1l-1 -1c-2,-2 -9,-8 -10,-10 -1,0 -2,1 -2,1l-20 11c0,0 0,0 -1,0 -2,1 -4,3 -6,4 -1,-1 -3,-2 -4,-3 -1,0 -1,-1 -2,-1l-4 -3c-1,0 -2,0 -2,-1 0,-1 0,-3 0,-4 0,-5 0,-11 -1,-16 0,-2 0,-13 0,-13 -1,-1 -3,-1 -4,-1 -2,-1 -3,-1 -4,-1l-13 -4c-1,0 -2,0 -4,-1 0,0 -1,0 -2,0 0,0 -1,0 -2,-1 -2,0 -2,0 -3,2 0,0 0,1 -1,2l-4 8c-1,0 -1,1 -1,1l-3 5c-1,1 -6,9 -6,10 -1,0 -6,-1 -7,-1 -1,0 -6,0 -7,0l0 -1c0,0 0,0 0,0l-7 -10c0,0 0,-1 -1,-1l-1 -2c-1,-2 -3,-5 -4,-7 -1,-2 -2,-3 -4,-5l-1 -2 -7 2c-2,1 -3,1 -4,1l-8 3c-1,0 -1,0 -2,0l-8 2c0,0 -1,1 -1,1 0,4 0,10 -1,14 0,2 0,3 0,5 0,2 0,3 0,5l0 7c0,1 -2,1 -3,2 -1,0 -1,1 -2,1 0,0 -1,0 -1,1 -1,0 -1,0 -1,0 -1,0 0,0 -1,1 0,0 -1,0 -1,0 -3,2 -3,2 -5,1l-6 -3c0,0 0,0 -1,0 0,-1 -1,-1 -1,-1l-1 -1c-3,-1 -5,-3 -8,-4l-6 -3c-1,-1 -4,-3 -5,-3 0,1 0,1 0,1 -4,4 -9,9 -13,13l-4 3c0,0 0,0 0,1l-4 3c-1,2 -1,2 0,3 1,1 1,1 1,2l13 23c1,2 1,2 0,3l-2 2c0,2 -2,3 -2,5 -1,1 -1,2 -2,3 -1,2 -1,1 -4,1 -3,0 -6,0 -9,0 -7,1 -13,1 -20,1 -2,0 -1,1 -2,3l-3 11c0,1 0,2 0,2l-3 10c0,1 -1,3 -1,4zm94 15l7 0 0 -10 5 0 7 10 8 0 -8 -11c4,-2 7,-5 7,-10l0 0c0,-3 -1,-5 -3,-7 -2,-2 -5,-3 -9,-3l-14 0 0 31zm7 -16l0 -9 7 0c3,0 5,1 5,4l0 1c0,2 -2,4 -5,4l-7 0zm25 16l24 0 0 -6 -17 0 0 -7 15 0 0 -6 -15 0 0 -6 17 0 0 -6 -24 0 0 31zm41 0c7,0 12,-3 12,-9l0 0c0,-6 -4,-8 -10,-10 -6,-1 -7,-2 -7,-4l0 0c0,-1 1,-3 4,-3 3,0 5,2 8,3l4 -5c-3,-2 -7,-4 -12,-4 -6,0 -11,4 -11,10l0 0c0,6 4,8 11,9 5,2 6,3 6,4l0 0c0,2 -2,3 -5,3 -3,0 -6,-1 -9,-3l-4 4c4,4 8,5 13,5zm24 0l7 0 0 -25 10 0 0 -6 -26 0 0 6 9 0 0 25zm-98 54l11 0 4 -10 20 0 4 10 10 0 -19 -46 -10 0 -20 46zm19 -19l6 -15 6 15 -12 0zm38 19l10 0 0 -14 7 0c11,0 19,-5 19,-16l0 0c0,-10 -7,-16 -18,-16l-18 0 0 46zm10 -23l0 -14 8 0c5,0 8,3 8,7l0 0c0,4 -3,7 -8,7l-8 0zm34 23l10 0 0 -46 -10 0 0 46z"/>
  <path class="fil4" d="M160 164c3,0 6,-1 8,-2 2,-2 3,-4 4,-7 0,-2 1,-7 1,-14 0,-6 0,-11 0,-13 0,-3 1,-6 2,-8 1,-2 2,-3 4,-5 1,-1 3,-2 5,-2 2,-1 4,-1 8,-1l3 0 0 9 -2 0c-4,0 -7,1 -8,3 -1,1 -2,4 -2,10 0,10 0,17 -1,19 -1,5 -2,8 -3,10 -2,2 -5,5 -9,6 5,2 8,5 10,9 2,3 3,10 3,18 0,8 0,12 0,14 0,3 1,4 2,6 2,1 4,1 8,1l2 0 0 10 -3 0c-4,0 -7,-1 -9,-1 -2,-1 -5,-3 -6,-5 -2,-2 -3,-4 -4,-8 0,-3 0,-8 0,-15 0,-7 -1,-12 -1,-15 -1,-3 -2,-5 -4,-6 -2,-2 -5,-3 -8,-3l0 -10z"/>
  <path class="fil4" d="M383 164l0 10c-3,0 -5,1 -7,3 -2,1 -3,3 -4,6 -1,3 -1,8 -1,14 0,7 0,11 0,13 -1,4 -1,6 -2,8 -1,2 -3,4 -4,5 -1,1 -3,2 -6,3 -1,0 -4,1 -7,1l-3 0 0 -10 2 0c4,0 6,-1 8,-2 1,-2 2,-5 2,-10 0,-10 0,-16 0,-19 1,-4 2,-8 4,-11 2,-2 5,-4 8,-6 -4,-2 -8,-5 -10,-8 -1,-4 -2,-10 -2,-19 0,-7 0,-12 0,-13 -1,-3 -2,-5 -3,-6 -1,-1 -4,-2 -7,-2l-2 0 0 -9 3 0c4,0 7,0 9,1 2,1 4,2 6,4 1,2 3,5 3,8 1,3 1,8 1,16 0,7 0,12 1,14 1,3 2,5 4,7 2,1 4,2 7,2z"/>
  <path class="fil5" d="M315 212l10 0 0 -46 -10 0 0 46zm-34 -23l0 -14 8 0c5,0 8,3 8,7l0 0c0,4 -3,7 -8,7l-8 0zm-10 23l10 0 0 -14 7 0c11,0 19,-5 19,-16l0 0c0,-10 -7,-16 -18,-16l-18 0 0 46zm-38 -19l6 -15 6 15 -12 0zm-19 19l11 0 4 -10 20 0 4 10 10 0 -19 -46 -10 0 -20 46zm98 -54l7 0 0 -25 10 0 0 -6 -26 0 0 6 9 0 0 25zm-24 0c7,0 12,-3 12,-9l0 0c0,-6 -4,-8 -10,-10 -6,-1 -7,-2 -7,-4l0 0c0,-1 1,-3 4,-3 3,0 5,2 8,3l4 -5c-3,-2 -7,-4 -12,-4 -6,0 -11,4 -11,10l0 0c0,6 4,8 11,9 5,2 6,3 6,4l0 0c0,2 -2,3 -5,3 -3,0 -6,-1 -9,-3l-4 4c4,4 8,5 13,5zm-41 0l24 0 0 -6 -17 0 0 -7 15 0 0 -6 -15 0 0 -6 17 0 0 -6 -24 0 0 31zm-25 -16l0 -9 7 0c3,0 5,1 5,4l0 1c0,2 -2,4 -5,4l-7 0zm-7 16l7 0 0 -10 5 0 7 10 8 0 -8 -11c4,-2 7,-5 7,-10l0 0c0,-3 -1,-5 -3,-7 -2,-2 -5,-3 -9,-3l-14 0 0 31z"/>
 </g>
</svg>
