<?xml version="1.0" encoding="UTF-8"?>
<!DOCTYPE svg PUBLIC "-//W3C//DTD SVG 1.1//EN" "http://www.w3.org/Graphics/SVG/1.1/DTD/svg11.dtd">
<!-- Creator: CorelDRAW X8 -->
<svg xmlns="http://www.w3.org/2000/svg" xml:space="preserve" width="100px" height="36px" version="1.1" style="shape-rendering:geometricPrecision; text-rendering:geometricPrecision; image-rendering:optimizeQuality; fill-rule:evenodd; clip-rule:evenodd"
viewBox="0 0 7 2"
 xmlns:xlink="http://www.w3.org/1999/xlink">
 <defs>
  <style type="text/css">
   <![CDATA[
    .fil0 {fill:#00A0E3}
   ]]>
  </style>
 </defs>
 <g id="Ebene_x0020_1">
  <metadata id="CorelCorpID_0Corel-Layer"/>
  <path class="fil0" d="M1 0l0 0 0 0 0 0c0,0 0,0 0,0l0 0 0 0 0 2 0 0c0,0 0,0 0,0l0 0c0,0 0,0 0,0l0 -2c0,0 0,0 0,0zm4 0l0 0 1 0 0 0c0,0 0,0 0,0l0 0 0 0 0 2 0 0c0,0 0,0 0,0l-1 0c0,0 0,0 0,0l0 -2c0,0 0,0 0,0zm-2 1l1 0 0 0c0,0 0,0 0,0 0,0 0,0 0,0l0 0c0,0 0,0 0,0 0,1 0,0 1,0 0,0 0,0 0,0l0 0c0,0 0,0 0,0 0,0 0,0 0,0 0,0 0,0 0,0 0,0 0,0 0,0 0,0 0,0 0,0 0,0 0,1 0,1 0,0 -1,0 -1,0 0,0 0,0 0,0 0,0 0,0 0,0l0 -1c0,0 0,0 0,0l0 0 0 0 -1 0 0 0 0 0 0 0c0,0 0,0 0,0l0 1c0,0 -1,0 -1,0 0,0 0,0 0,0 0,0 0,0 0,0 0,0 0,-1 0,-1 0,0 0,0 0,0 0,0 0,0 0,0 0,0 0,0 0,0 0,0 0,0 0,0 0,0 0,0 0,0l0 0c0,0 0,0 0,0 0,0 0,1 0,0 0,0 0,0 0,0l0 0c1,0 1,0 1,0 0,0 0,0 0,0l0 0 0 0 0 0 0 0zm3 -1l0 0c0,0 0,0 0,0l0 1 1 0c0,0 0,0 0,0l0 0c0,0 0,0 0,0l-1 0 0 1c0,0 0,0 0,0l0 0 0 -2zm-5 0l-1 0c0,0 0,0 0,0l0 1 0 0c0,0 0,0 0,0l0 0c0,0 0,0 0,0l0 0 0 1c0,0 0,0 0,0l1 0 0 -2z"/>
 </g>
</svg>
